<svg xmlns="http://www.w3.org/2000/svg" id="Layer_1" x="0" y="0" version="1.1" viewBox="0 0 252.7 67" xml:space="preserve"><style>.st1{fill:#1c1080}</style><path d="M93.9 26.9c-1.8-1-3.2-2.3-4.2-4.1-1-1.8-1.5-3.8-1.5-6.1s.5-4.4 1.5-6.1c1-1.8 2.4-3.1 4.2-4.1 1.8-1 3.8-1.5 6.1-1.5 3.1 0 5.7.8 7.7 2.4v2.4c-1.9-1.7-4.4-2.6-7.5-2.6-1.8 0-3.4.4-4.9 1.2-1.4.8-2.6 1.9-3.4 3.3-.8 1.4-1.2 3.1-1.2 5s.4 3.6 1.2 5c.8 1.4 1.9 2.5 3.4 3.3 1.4.8 3 1.2 4.8 1.2 1.6 0 3-.2 4.3-.6 1.3-.4 2.4-1.1 3.5-2.1V26c-1.9 1.7-4.6 2.5-8 2.5-2.2-.1-4.2-.6-6-1.6zM116.1 26.9c-1.8-1-3.2-2.3-4.2-4.1s-1.5-3.8-1.5-6.1.5-4.3 1.5-6.1 2.4-3.1 4.2-4.1 3.8-1.5 6-1.5 4.2.5 6 1.5c1.8 1 3.2 2.4 4.2 4.1s1.5 3.8 1.5 6.1-.5 4.3-1.5 6.1-2.4 3.1-4.2 4.1c-1.8 1-3.8 1.5-6 1.5-2.3 0-4.3-.5-6-1.5zm10.6-1.9c1.4-.8 2.5-1.9 3.3-3.3.8-1.4 1.2-3.1 1.2-5s-.4-3.5-1.2-4.9-1.9-2.5-3.3-3.3c-1.4-.8-3-1.2-4.7-1.2-1.7 0-3.3.4-4.7 1.2-1.4.8-2.5 1.9-3.3 3.3-.8 1.4-1.2 3.1-1.2 5s.4 3.6 1.2 5c.8 1.4 1.9 2.5 3.3 3.3s3 1.2 4.7 1.2c1.7-.2 3.3-.6 4.7-1.3zM134.9 5.5h2.6l7.5 18.9 7.5-18.9h2.6l-8.9 22.4h-2.3l-9-22.4zM159 5.5h2.5v22.4H159V5.5zM166 5.5h6.9c2.4 0 4.5.4 6.2 1.3 1.8.9 3.1 2.2 4.1 3.8.9 1.7 1.4 3.6 1.4 5.9 0 3.7-1.1 6.6-3.2 8.5-2.1 1.9-5.1 2.9-9 2.9H166V5.5zm6.2 20.3c3.4 0 5.9-.8 7.5-2.3 1.6-1.5 2.4-3.8 2.4-6.9 0-2.8-.8-5-2.3-6.6s-3.9-2.4-6.9-2.4h-4.4v18.2h3.7zM187.8 17.4h9.8v2.1h-9.8v-2.1zM205.8 8.2l-5 3.6V9.3l5.2-3.8h2.2v22.4h-2.5V8.2zM215 28v-2.2c.8.3 1.6.4 2.6.4 2.5 0 4.4-.8 5.7-2.3 1.3-1.5 2-3.8 2.2-6.9-.6.9-1.4 1.6-2.5 2s-2.3.7-3.7.7c-1.4 0-2.7-.3-3.8-.9s-2-1.5-2.6-2.6c-.6-1.1-.9-2.4-.9-3.8s.3-2.7 1-3.9 1.6-2 2.7-2.6c1.2-.6 2.6-1 4.2-1 2.5 0 4.4.8 5.9 2.4s2.2 3.9 2.2 7c0 4.5-.9 8-2.6 10.4-1.8 2.4-4.3 3.6-7.7 3.6-1 .1-1.9 0-2.7-.3zm8.9-11.8c1-.9 1.6-2.2 1.6-3.8 0-.9-.2-1.8-.7-2.6-.5-.8-1.1-1.4-1.9-1.9-.8-.5-1.8-.7-2.8-.7-1.6 0-2.9.5-3.9 1.5s-1.5 2.3-1.5 3.9.5 2.9 1.5 3.8c1 .9 2.3 1.4 3.9 1.4 1.5-.2 2.8-.6 3.8-1.6zM88.8 36.7h6.9c2.4 0 4.5.4 6.2 1.3 1.8.9 3.1 2.2 4.1 3.8.9 1.7 1.4 3.6 1.4 5.9 0 3.7-1.1 6.6-3.2 8.5s-5.1 2.9-9 2.9h-6.4V36.7zm6.3 20.2c3.4 0 5.9-.8 7.5-2.3 1.6-1.5 2.4-3.8 2.4-6.9 0-2.8-.8-5-2.3-6.6-1.6-1.6-3.9-2.4-6.9-2.4h-4.4v18.2h3.7zM117.5 36.7h2.3l8.9 22.4h-2.6l-2.4-6h-10.3l-2.4 6h-2.6l9.1-22.4zm5.6 14.3l-4.5-11.4-4.4 11.4h8.9zM134.5 38.8h-7.2v-2.1h16.8v2.1H137v20.3h-2.5V38.8zM147.4 36.7h14.4v2.1h-11.9v8h8.9v2.1h-8.9v8h11.9V59h-14.4V36.7zM177.8 36.7h2.5V57h11.9v2.1h-14.4V36.7zM203.1 36.7h2.3l8.9 22.4h-2.6l-2.4-6H199l-2.4 6H194l9.1-22.4zm5.6 14.3l-4.5-11.4-4.4 11.4h8.9zM229.7 57.3l13.1-18.5H230v-2.1h15.8v1.8l-13 18.5h13.5v2.1h-16.6v-1.8zM250.2 36.7h2.5v22.4h-2.5V36.7z" class="st1"/><path fill="#1c1080" d="M88.8 61.7h163.8v2.5H88.8z"/><circle cx="33.5" cy="33.5" r="33.5" fill="#f5bcd6"/></svg>