<svg id="Layer_1" data-name="Layer 1" xmlns="http://www.w3.org/2000/svg" viewBox="0 0 399.5 146.7"><defs><style>.cls-3{fill:#ffe35c}</style></defs><path fill="#002781" d="M58.7 3L37.9 6.1 0 73.4l37.9 67.1 20.8 3.2-40.4-70.3L58.7 3z"/><path fill="#d00a1e" d="M111.9 3l20.8 3.1 37.9 67.3-37.9 67.1-20.8 3.2 40.4-70.3L111.9 3z"/><path class="cls-3" d="M58.7 3l26.6-3v73.4h-67z"/><path d="M58.7 143.7l26.6 3V73.4h-67z" fill="#efc400"/><path class="cls-3" d="M111.9 143.7l-26.6 3V73.4h67z"/><path d="M111.9 3L85.3 0v73.4h67z" fill="#fff6c8"/><path d="M219.8 44.3a46.2 46.2 0 01-10.4 1.3 20.8 20.8 0 01-7.5-1.1 9.4 9.4 0 01-4.4-3.7 17.4 17.4 0 01-2.2-5.9 56 56 0 01-.5-8.5c0-7.2 1-12.2 3.1-15s5.8-4.3 11.2-4.3a48.4 48.4 0 0111 1.5l-.3 6a63.3 63.3 0 00-9-.8 10 10 0 00-5.1 1 5.7 5.7 0 00-2.2 3.6 40.7 40.7 0 00-.8 9.2c0 4.3.5 7.3 1.5 9s3.1 2.4 6 2.4a60.7 60.7 0 009.6-.7zm6.5-23.7q3-3.8 9.7-3.8t9.7 3.8q3 3.8 3 10.5c0 9.6-4.2 14.4-12.7 14.4s-12.6-4.8-12.6-14.4c0-4.5 1-8 2.9-10.5zm5.7 16.7c.7 1.3 2.1 2 4 2s3.3-.6 4-2a13.5 13.5 0 001.2-6.2A12.9 12.9 0 00240 25a4.3 4.3 0 00-4-2 4.2 4.2 0 00-4 2c-.8 1.3-1.2 3.3-1.2 6.1s.4 4.9 1.2 6.2zm45.3-30.8v38.4H270v-1.2a15.1 15.1 0 01-6.7 1.8c-4 0-6.7-1.1-8.3-3.4s-2.3-5.9-2.3-11 .9-8.5 2.8-10.9 4.7-3.4 8.5-3.4a30.2 30.2 0 014.9.5l1.1.3V6.5zm-8.1 31.8l.8-.2V23.7a32.1 32.1 0 00-5.4-.5c-3 0-4.4 2.6-4.4 7.9 0 2.8.3 4.9 1 6a3.2 3.2 0 003.2 1.8 18.4 18.4 0 004.8-.6zm22.3-.4a5.5 5.5 0 003.7 1.2c3.4 0 6.4-.2 9.1-.4l1.5-.2V44a45.8 45.8 0 01-11.3 1.6c-4.1 0-7.2-1.2-9-3.3s-2.8-5.8-2.8-10.7c0-9.8 4-14.8 12.1-14.8s12 4.1 12 12.4l-.5 5.1h-16a4.4 4.4 0 001.2 3.7zm8.1-9.3q0-3.2-1.1-4.6c-.6-.8-1.9-1.3-3.6-1.3a4.5 4.5 0 00-3.7 1.3 7.9 7.9 0 00-1.2 4.5zm33.2-4.9v21.2h-7.4V23.7h-2.9v-6.3h2.9v-1.1c0-4 .6-6.7 1.8-8.2s3.2-2.2 6.3-2.2a31 31 0 015 .5l1.2.2v6l-4-.2a2.6 2.6 0 00-2.2.9 6.4 6.4 0 00-.5 3.1v1.1h6.7v6.3zm12.2-3.1c1.9-2.5 5.1-3.8 9.6-3.8s7.8 1.3 9.7 3.8 3 6 3 10.5c0 9.6-4.2 14.4-12.7 14.4S342 40.7 342 31.1q0-6.7 3-10.5zm5.7 16.7c.7 1.3 2.1 2 4 2s3.3-.6 4-2a13.5 13.5 0 001.2-6.2c0-2.8-.4-4.9-1.2-6.1a4.3 4.3 0 00-4-1.9c-2 0-3.2.6-4 1.9a12.9 12.9 0 00-1.2 6.1c0 2.8.4 4.9 1.2 6.2zm22 7.6V17.4h7.3v3a26.5 26.5 0 018.8-3.6v7.4a71.4 71.4 0 00-7.6 2l-1.1.4v18.3zm-169 42.4v12.5h-7.6V62.4h14.5c8.8 0 13.1 4.1 13.1 12.3 0 4.9-1.8 8.5-5.5 10.7l5.3 14.3h-8.3L211 87.3zm11.1-8.1a6.9 6.9 0 001.3-4.4 6.3 6.3 0 00-1.3-4.2 4.9 4.9 0 00-4-1.6h-6.9v11.8h7a4.9 4.9 0 003.8-1.6zm15.7-3.8c2-2.4 5.2-3.7 9.7-3.7s7.8 1.3 9.7 3.7 2.9 6 2.9 10.6c0 9.6-4.1 14.4-12.6 14.4s-12.6-4.8-12.6-14.4c0-4.6 1-8.1 2.9-10.6zm5.7 16.8a4.5 4.5 0 004 2 4.3 4.3 0 004-2 13.5 13.5 0 001.2-6.2 13.2 13.2 0 00-1.2-6.2q-1.1-1.9-4-1.9a4.4 4.4 0 00-4 1.9 13.4 13.4 0 00-1.1 6.2 13.4 13.4 0 001.1 6.2zm29.4 7.6h-7.4V72.3h7.3v1.5a13.7 13.7 0 016.5-2.2c3 0 5.2.8 6.8 2.5a20.9 20.9 0 019.3-2.5c3.6 0 6.1 1 7.6 3.1s2.1 5.4 2.1 10.1v15h-7.4V85.1a13.1 13.1 0 00-.7-5.2 3.1 3.1 0 00-3.1-1.6 17.9 17.9 0 00-4.3.7l-.8.3c.2 2.8.3 4.9.3 6.3v14.2h-7.4V85.6a17.2 17.2 0 00-.7-5.8c-.4-1.1-1.5-1.6-3.1-1.6a13.9 13.9 0 00-4.2.7l-.6.3zm59.6-18.9v11.4a3.7 3.7 0 00.4 1.8 1.6 1.6 0 001.3.7l-.2 5.6a20.1 20.1 0 01-4.5-.4 11 11 0 01-3.3-1.5 19 19 0 01-8.1 1.9c-5.7 0-8.5-3-8.5-9q0-4.4 2.4-6.2c1.5-1.3 4-2 7.2-2.2l5.8-.4v-1.7a3.1 3.1 0 00-.7-2.3 3.9 3.9 0 00-2.5-.6l-10.3.4-.3-5.1a42.3 42.3 0 0111.2-1.6c3.6 0 6.1.8 7.6 2.2s2.3 3.8 2.3 7zm-12.3 7.3c-2.1.2-3.1 1.3-3.1 3.2s.9 3.1 2.7 3.1a17.3 17.3 0 004.5-.7l.8-.2v-5.9zm26.7 11.6h-7.4V72.3h7.3v1.5a13.9 13.9 0 016.8-2.2q5.6 0 7.6 3.2c1.4 2.2 2.2 5.5 2.2 9.9v15.1h-7.4V85.1a12.9 12.9 0 00-.8-5.2c-.5-1.1-1.7-1.6-3.3-1.6a11.4 11.4 0 00-4.3.7l-.6.3zm22.9-30.9v-7.6h7.4v7.5zm0 30.9V72.3h7.4v27.5zm35.2-18.9v11.4a3.7 3.7 0 00.4 1.8 1.6 1.6 0 001.3.7l-.2 5.6a20.1 20.1 0 01-4.5-.4 11.4 11.4 0 01-3.4-1.5 18.4 18.4 0 01-8 1.9c-5.7 0-8.5-3-8.5-9 0-3 .8-5 2.3-6.2a13.5 13.5 0 017.3-2.2l5.8-.4v-1.7a3.1 3.1 0 00-.7-2.3 3.9 3.9 0 00-2.5-.6l-10.3.4-.3-5.1a42.3 42.3 0 0111.2-1.6c3.6 0 6.1.8 7.6 2.2s2.3 3.8 2.3 7zm-12.3 7.3c-2.1.2-3.1 1.3-3.1 3.2s.9 3.1 2.6 3.1a17.3 17.3 0 004.6-.7l.8-.2v-5.9z"/><path d="M201.5 124H197v-3h12.3v3h-4.5v13.4h-3.3zm19.6-3h4.1l5.1 16.4h-3.4l-1-3.4h-5.6l-1 3.4h-3.4zm4 10l-2-7.2-2 7.2zm16.3 6.4l-2.4-.4v-2.6l5 .2a4.5 4.5 0 002-.4 1.3 1.3 0 00.7-1.3v-.6a1.4 1.4 0 00-.4-1.1 1.8 1.8 0 00-1.2-.4h-1.4a5.4 5.4 0 01-3.6-1.1 4.4 4.4 0 01-1.2-3.5v-.8q0-4.6 5.3-4.6l2.6.2 2.4.4v2.6l-4.6-.2a3.7 3.7 0 00-1.9.4 1.5 1.5 0 00-.6 1.4v.4a1.5 1.5 0 00.5 1.2 2.3 2.3 0 001.4.4h1.6a4.3 4.3 0 013.2 1.2 4.2 4.2 0 011.1 3v.9a5.2 5.2 0 01-.7 2.9 3.5 3.5 0 01-1.9 1.4 10.4 10.4 0 01-3.1.4zm17.9-16.4h3.3v6.8h2.2l3.4-6.8h3.5l-4.2 8.2 4.4 8.1h-3.5l-3.5-6.6h-2.2v6.6h-3.3zm34.1 3.7a3.5 3.5 0 011.1-2.9 4.1 4.1 0 012.6-.9 69.3 69.3 0 017.1.3v2.8H298a1.4 1.4 0 00-1 .4 1.3 1.3 0 00-.4.9v2.8l6.5.2v2.6l-6.5.2v6.3h-3.3zm22.5 12.2a4.2 4.2 0 01-2.2-2.4 18.9 18.9 0 010-10.4 4.4 4.4 0 012.2-2.5 11.4 11.4 0 017.7 0 4.4 4.4 0 012.2 2.5 19.1 19.1 0 010 10.4 4.3 4.3 0 01-2.2 2.4 11.8 11.8 0 01-7.7 0zm6-2.7a2.4 2.4 0 001-1.5 13.8 13.8 0 00.3-3.4 14.3 14.3 0 00-.3-3.5 2.3 2.3 0 00-1-1.5 4.5 4.5 0 00-2.1-.4 4.4 4.4 0 00-2.1.4 2.4 2.4 0 00-1.1 1.5 13.5 13.5 0 00-.3 3.5 13.8 13.8 0 00.3 3.4 2.4 2.4 0 001 1.5 4.4 4.4 0 002.1.4 4.4 4.4 0 002.1-.4zm14-13.2h6.8a4.8 4.8 0 013.4 1.2q1.2 1.2 1.2 4.1a5.4 5.4 0 01-.7 3.1 4.3 4.3 0 01-1.9 1.5l3.1 6.6h-3.3l-2.6-6.1h-2.7v6.1h-3.3zm6.2 7.7a1.9 1.9 0 001.5-.5 2.8 2.8 0 00.5-1.9 2.5 2.5 0 00-.5-1.8 2 2 0 00-1.5-.5h-2.9v4.7zm16.9 8.2a4.3 4.3 0 01-1.9-2.5 15.8 15.8 0 01-.7-5.2 14.7 14.7 0 01.7-5.1 4.6 4.6 0 012-2.5 6.9 6.9 0 013.3-.7l2.8.2 2.3.5v2.5l-1.9-.3h-2.5a4.1 4.1 0 00-2 .4 2.4 2.4 0 00-1 1.5 13.5 13.5 0 00-.3 3.4 14.8 14.8 0 00.3 3.4 2.5 2.5 0 001 1.6 4 4 0 002.1.4l4.4-.2v2.5a17 17 0 01-5.2.6 7.2 7.2 0 01-3.4-.5zm18.9-.1q-1.2-.7-1.2-2.9v-9.1a3.5 3.5 0 011.1-2.9 4.1 4.1 0 012.6-.9l7.1.3v2.7h-6.1q-1.4 0-1.4 1.3v2.4l6.5.2v2.6l-6.5.2v2.3q0 1.5 1.4 1.5h6.2v2.7a61.8 61.8 0 01-6.8.3 5.4 5.4 0 01-2.9-.7z" fill="#00f"/></svg>