<svg class="fill-current block h-12 w-auto" xmlns="http://www.w3.org/2000/svg" viewBox="0 0 700 700"><path d="M635.4,160.8c105.2,155.8,62.7,367.8-94.5,472S169.7,694.9,64.6,539.2,1.9,171.4,159.1,67.2,530.3,5.1,635.4,160.8Z" fill="#004b8b" fill-rule="evenodd"></path><path d="M530,616.4c-149.2,99-351.2,59.3-451-88.6s-59.8-348,89.5-446.9,351.2-59.2,451,88.7S679.2,517.6,530,616.4Zm97-451.8C524.7,13,316.4-28,163.4,73.4S-30.9,381.2,71.5,532.8s310.6,192.5,463.6,91.1S729.4,316.2,627,164.6ZM461.3,514.7c-92.5,61.4-217.8,36.7-279.7-55s-37-215.7,55.5-277.1,217.8-36.7,279.7,55S553.9,453.4,461.3,514.7Zm63.3-282.2C459.8,136.5,328.8,110.8,232,175S109.1,368.9,173.9,464.9s195.8,121.7,292.6,57.5,122.8-194,58.1-289.9ZM85.9,330.7a12.8,12.8,0,1,1-12.8,12.8A12.8,12.8,0,0,1,85.9,330.7Zm525.2,0a12.8,12.8,0,1,1-12.8,12.8A12.8,12.8,0,0,1,611.1,330.7Zm-235.4,9-.6.4.3.7h-.9l-.2.9-.9-.4-.9.6-.6-.6-.9.4-.2-.8h-.9v-.7l-.9-.2.2-.8-.8-.5.7-.4-.3-.8.7-.4v-.8h.9l.2-.8.9.3.6-.6.6.6.8-.3.3.8h.8v.8l.9.2-.2.8.8.5-.7.5.2.6Zm21.7.4c.2,2.5-5.8,2.7-6.1-1.4s6-4.2,6-1.9c-1.8-.3-2.8.5-2.8,1.9S395.5,340.5,397.4,340.1ZM286,333.2h62.8l.2-.2-.2-58.1h64.1v58.2H351.1c3.4,11.9,6.6,21.8,9.8,30.2h20.2v-3.2c-1,1.4-2.5,1.2-3.3-.3-1.2,1.1-2.5.8-3-.7-1.2,1.2-2.8,1-3.2-.8-.7,2-1.7,3.3-4.2,3.2s-3.1.6-3.7,0-2.4.7-3.2.3l4.6-14.9c.8-2.7,2.6-4,6.3-3.4s3.1,3.8,2.4,5.9a46.3,46.3,0,0,0,6.7.6h-.1a6.1,6.1,0,0,0,1.9-2.4h-1.2a6.7,6.7,0,0,0,2-2.3c-1,.6-3.9,2.3-5,.5.1-.2,3.2-.5,3.4-1.2a.4.4,0,0,1-.1-.3,4.9,4.9,0,0,0-3.6.2c-.4-1.7.6-2.4,3.9-2.4h0c6.9-2.1,5.3.4,7.5,3.8h-1.4a8.9,8.9,0,0,0,1.6,2.2l-1.5-.2a10.7,10.7,0,0,0,1.3,2.1h-.1a24,24,0,0,0,4.3-1.1c-.9-2.1-1.1-4.7,2.4-5.6a4.7,4.7,0,0,1,5.4,2.2l8.2,16.1c-.3.6-1,.6-3.6-.1-.9.5-1.3.5-3.4-.2s-2.8,0-4.3-3.2c-.3,1.6-1.3,1.9-2.9.7-.3,1.7-1.7,2-2.8.5-.4,1.6-1.5,2-2.9.8l.3,3.3h23v4.6h.1v11.4c-.2,13.3-20.3,19.1-31,23.2-11.6-11.7-21.6-29.5-33-69.2-3.8,13.1-7.3,23.9-10.8,32.8l-2.9.3v-2.9h-1.8c1.1-2.4.9-3.4,1.3-5.4s1.5-1.1,1.6-.3c1-1.2-.5-2.6-1.9-1.3-.5-1-.6-1.3-.2-2.2s1.8-.5,1.9.6c1.3-.9-.6-4.3-2.9-1.5a2.5,2.5,0,0,1-.7-1.6c.8-1,1.6-.8,1.7.1,1.3-1.1-.9-3.2-2.5-1.5-1.4-2.6-2.6-8.8,1.2-9.6,2.1-.5,3.3.3,4.4,1.8s.7,1.6-.4,2a1.2,1.2,0,0,0,1,.8c-1.6,1.1.8,3.7.8,5a2,2,0,0,0,.5-1.9c.3.3.3.5.5,1s0-1.7-.2-2.3a3.4,3.4,0,0,1,.8.9c.3-1.9.1-2.1-.4-2.7s.6-.5.9-1c-1.7-.1-2.6-3.9-5-4.8-6.5-1.9-8.3,4.2-6.4,9.5.7,2.3,2.4,5.9,3,8.1s.4,3.4-.9,6.3h-2.1v2.9h-2.9c-4.4-3.9-5.8-7.7-8.5-10.6a8.4,8.4,0,0,0,3.8,1.5c-.7-1-1.4-1.4-1.4-2.6a4.9,4.9,0,0,0,4.7,1.2c-1.5-1.2-2.5-2-2.6-4.7a15.7,15.7,0,0,1,2.6,2.5c1.3-2.4.6-3.7-.6-5.4,1.1.8.9.3,2,.6s-.1-1.2-1.2-2.2c1,.4.6.1,1.5.1s-.1-1.3-1.4-2.1c.9,0,.9-.4,1.3-.8-3.1-1-1.2-2.1-4.6-3.2,1-1.6-1.3-2.6-2.1-1.1-.6-.2-.6-.4-1.2-.5.3-2.2-2.6-2-2.2,0a8.5,8.5,0,0,0-3.3,1.2,1.8,1.8,0,0,0-.2,1.1,13.7,13.7,0,0,1-3.5,1.5c-.7,0-.8.6-.1.6a12,12,0,0,0,.4,2.4c0,.5.3.3.4,0a4.4,4.4,0,0,1,1.6-1.1c0-.5.2-.5.3,0s.7.6.6,1.9c-5-.5-5.7-.5-6.1-1.3s-1-1-.4.3.4,1.1,6.2,1.5c-.4.4-1,.5-2.2.6s-.3-.5-.3,0-.2.3-.2.6a1.7,1.7,0,0,0-.4.6c-1.2-.2-2-.8-3.9-.6-2.1-2.8-5-1.2-7.8-6h-.1l.8-.3,1.1,1.8,1-.5-1-1.9a27.3,27.3,0,0,1,10.9-2.5,30.6,30.6,0,0,0,3.6-3.6c-6.3-.4-9.9,1.6-15.1,5h-.1l-1.1-2-1.1.5.7,1.1a2.1,2.1,0,0,0-2.5-.6c-1.3,0-1.9.1-2.3,1.1s-1.6,2.8-.4,3.3h.1l-.6.3.6,1,1.4-.7a1.5,1.5,0,0,0,.7,1.3l1-.7a6.8,6.8,0,0,0,.7,2.6l.8-.7a10.1,10.1,0,0,0,.4,2.6l1.2-1c-.2,1.3-.2,2.1.5,2.8a3.3,3.3,0,0,0,.4-1.3,7.2,7.2,0,0,0,2.3,1.7l.6.8a2.9,2.9,0,0,1-2,.9,2.4,2.4,0,0,0,2.7.3c-.5.6-.8,1.2-1.5,1.5h2.3c-2.2.1-3.4.5-5.7,2.2.3-1,.8-2.1-.1-1.9a1,1,0,0,1-1.3-.3c-.5,0-.5.7-.5,1.4,0-1.1-.3-2-1.1-1.7s-.5.8-1.5.6,0,.6.2.8l.5.5-.5-.5c-.4-.3-.8-.5-1.1,0a1.2,1.2,0,0,1-.4,1.3c.2.6.3.5,1.6.5-1.1,0-1.4.2-1.7.7a1.9,1.9,0,0,1,.7,1.7c.8.5,2.7-.5,3.4-1.2a1.3,1.3,0,0,1,0,1.2,6.2,6.2,0,0,0,3.1-1.6c.1.5-.2.8-.1,1.5a3.6,3.6,0,0,0,2-1.1,12.7,12.7,0,0,0-.4,1.4,2.8,2.8,0,0,0,2.2-1.4,2.4,2.4,0,0,0,0,1.2c1.3-.6,1.6-.6,2.3-1.6a4.6,4.6,0,0,0-.1,1.6,3.8,3.8,0,0,0,2.1-2c.1.4.1.8.2,1.4a4.3,4.3,0,0,0,1.7-1.6c.1.3-.3.8-.3,1.3a2.4,2.4,0,0,0,1.9-1.2c1.1,3.7,6,3.7,6.8,5.8v2h-6.1v-2.8h-6.2v2.9h-6v-2.9h-6.5v2.9H286V333.2Zm4.2-10.6V293.7c0-4.5,3.5-8.7,8.6-7.7s6,2.8,4.1,6.8a20.4,20.4,0,0,0,8.1,2.8,16.6,16.6,0,0,1,2.2-3.2l-1.3.2c1.2-1.1,2.5-1.5,2.8-2.6s-.6-1.9-1.2-2.3h-1.6v2.5h-1.6v-2.4h0v-.8a3.1,3.1,0,0,0-.9,1.1c-1.2-1.9-.4-2.9,1-3.5s0-2.2-.1-3.4l-2.3.3v-1.8a9.1,9.1,0,0,0,2.3.1,19.7,19.7,0,0,0-.3-2.4,17.7,17.7,0,0,0,2.3,0,17.2,17.2,0,0,0-.4,2.4,6.2,6.2,0,0,0,2.4-.2v1.7l-2.4-.2c0,.8.1,2.4.1,3.1h.9c.9-1.8,4.2-2.3,6.2-1.9s2.5,3.9,5.1,5.3c-.9.2-1,.4-1.5.1.3,1.4,1,1.7,1.3,2.8l-1.2-.2a11,11,0,0,1,1.5,2.8h-1.4a8.9,8.9,0,0,1,1.2,2.9c3.6-.2,5.4-.6,7.5-1.9-1.4-3.8-1.6-6,3.4-7.6s9.1.2,9.1,8.3v27.3c0,2.2.3,3.3,1.5,4.5-1.9-.4-3.3-1.1-5.2-4.6-1.1-.1-2.2-.7-3.9-3.7-3.3-1.1-3.6-1.2-3.6-11.7-.3.9-.7.9-1.7,1.3a2.5,2.5,0,0,1-2.1-1.5c-.4.8-.6,1.1-1.6,1.2a3.5,3.5,0,0,1-1.3-1c1,1.7,3.3,5.3,5,7.8l-2.5-.7c1.8,3.3,2.2,4,4.6,7.8.2.4.3.3.7.3s1.7-.7,2.6.1h0c.8-.2,1.8.2,1.6,1.6-.4-.5-.6-.7-1.3-.6a.1.1,0,0,1-.1.1c-1.2.5-1-.3-2.4,0,1,1.2,2.1.9,2.3,2.1s-.1.3-.2.3v.3a1.4,1.4,0,0,1-.1,2c-.4-1.5-.9-1.2-1-1.6h-.1c-.1,0-.2.1-.4,0-1.8-1.3-.6-1.7-1.4-2.7s-.3-.2-.5.1.8,1.9-.6,3.2h-.4c.2.6-.9,0-.9,1.5-1.3-.9-1-1.6-.4-1.8h0c-.1-.1-.3,0-.4-.2s1.3-1.4,1.9-2.6,0-.3-.3-.4-.8,1.1-2.6,1.3h-.2c-.2.4-1-.1-1,1.1-.9-.6-.5-2.1.5-2s-.3-.2,0-.5,1.2-.1,2.5-.7.2-.3.2-.3a63.3,63.3,0,0,1-5-6.9,4.2,4.2,0,0,1-.9,2.6,57,57,0,0,0-3.3-5.5c-.2.4-.1.2-.6.5s-.6-.3-.9-.4c1.3,6.1,1.9,7.5,5,12.5-.7.7-3,1.3-4,1.9a22.6,22.6,0,0,0,1.3,2,35.4,35.4,0,0,1-5.7,2.5,61.9,61.9,0,0,1-6.2-2.5l1.3-2.3-5-2.3c4.8-6.1,5.2-6.8,7-11.8l-.9.4-.6-.9c-1.4,2.5-1.7,2.5-3.5,4.5a2.2,2.2,0,0,1-.6-1.5l-6.6,6.4s-.1.2.2.3,2.1.2,2.6.7v.3h-.2c.8.3,1.4,1.5.7,2-.1-1.1-.8-.6-1-1.1h0c0,.1-.1.1-.2.2s-3-1.7-3-1,1.8,1.9,1.9,2.6-.7,0-.4.2.9,1-.3,1.8c-.1-1.3-.9-1-1-1.3s-.1.1-.2,0-.3-1.6-.8-3.3c-.2-.2-.2-.1-.5,0s.4,1.3-1.4,2.6h-.5c-.1.5-.7,0-1,1.7-.6-.8-.8-1.5,0-2.1s-.2-.1-.2-.5,1.3-.8,2.3-2c-1.4-.3-1.2.3-2.4-.1h0a1.3,1.3,0,0,0-1.4.5c-.3-1.3.8-1.7,1.6-1.5h0c.8-.8,1.1,0,2.6-.1s.5.1.7-.2,5.5-6.3,6.6-7.5a3.9,3.9,0,0,1-2.4,0c1-1.4,2.6-4.6,3.9-7.1,0,0-.5,1-1.2,1.2s-1.1-.5-1.6-1.3c-.5,1-.9.9-1.8,1.5a2.7,2.7,0,0,1-1.9-1.4c-.5,4.2-1,8.1-3.7,9.8-.6,2.3-1.5,3.6-4.2,4.8a7.5,7.5,0,0,1-4.9,5.1,14.2,14.2,0,0,0,1.1-3.1Zm6.2-43.9.8-.5v-.9h.9l.3-.9,1,.4.6-.8.7.8.9-.4.3.9h.9v.9l1,.3-.2.9.8.6-.7.6.2.7-.7.5.3.8h-.9l-.3,1-1-.4-.9.7-.7-.7-.9.5-.3-.9h-1v-.8l-.9-.2.2-.9-.9-.6.8-.6-.4-.8Zm30-.8c0-2,7.7-2.8,7.9,2.3s-8,4.2-8,1.8c2.4,1.3,4.1-.4,4.1-1.8A2.9,2.9,0,0,0,326.4,277.9ZM373.3,403c-2,.2-5.6.5-7.6-1.5a9.3,9.3,0,0,1-8.6,2.3H357c-1.8,1.5-4.1.8-1.8-.7-1.9-.4-4.5-1.2-4.5-3.2s1.1-.8,1.8-.1h.1c1.1-.7.7-.3,1.3-1.3-3.5-3.7,5.6-7.1,3.4-8.7s-1.9.3-2.5,1.2c-1-1.8.4-3.4,3.2-3.4a43.2,43.2,0,0,0-4.4-7.7c-1.6-1.8-2.9-5.4-2.1-10,1.7-7.7.2-6.3-.3-8.5s.2-3.9,2.5-5c-1.5,2.5,4.5,4.1,2.1,8.1,6.9,1.1,2.4,6.8,4.3,9.8-5-1.8-2.1-5.6-5.1-5.7s5.2,9.5,5.2,10.2.5-.5,1.3-.6a1.8,1.8,0,0,1,1.4-.6,23.9,23.9,0,0,0-.1,4.6,43.2,43.2,0,0,1,4.5,6.4c1.2,2.5,1.3,6.9-.5,10.7,2-1.1,3-1.2,4.5-2.2a2.6,2.6,0,0,1,.2,1.9,3.9,3.9,0,0,1,2.6,1,4.9,4.9,0,0,0-2.7,1.3,2.4,2.4,0,0,1,1.9,1.6Zm-29.4.2c2,1.3.1,2.1-1.7.7H342a10.1,10.1,0,0,1-9-2.3c-2.5,2.4-5.8,2.1-8.3,2.2a2.6,2.6,0,0,1,2.2-1.9,2.9,2.9,0,0,0-2.5-1.5,9.6,9.6,0,0,1,2.8-1.1,4.5,4.5,0,0,1,0-2c1.5,1,2.7,1.1,4.7,2.2-1.9-3.8-1.8-8.2-.5-10.7a56.9,56.9,0,0,1,5.4-7.4l-.8,1a14.3,14.3,0,0,0-.1-4.6,2.3,2.3,0,0,1,1.6.6c.7.1,1,.2,1.3.6,4.4-5.3,8.4-10.3,5.4-10.2s0,3.9-5.3,5.7c2-3-2.7-8.7,4.5-9.8-2.5-4,3.7-5.6,2.1-8.1,2.5,1.1,3.3,2.2,2.6,5s-2.1.8-.3,8.5c.8,4.6-.5,8.2-2.1,10a34.8,34.8,0,0,0-4.6,7.7c2.9,0,4.4,1.6,3.3,3.4-.7-.9-1.5-2-2.6-1.2s7.2,5,3.5,8.7c.6,1,.3.6,1.4,1.3h.1c.7-.7,1.5-.7,2,.1S345.9,402.8,343.9,403.2ZM317.5,390h0v-9.7l2.1-2.8,3.8-1.6,3.8,1.5,2.2,2.9.8,3.3c-1.5,2.8-3,5.4-4.6,7.8a6.4,6.4,0,0,1-2.3-1.4c-1.4,1.9-4.2,1.5-5.8,0Zm-12.2.2h0c-2.3,1.1-4.8,1-6.3-1.1a4.5,4.5,0,0,1-6.1.9h0v-9.8l2.6-3.3,3.8-1,3.9,1.4,2.1,3v9.9Zm-8.4,8.7c17.4,5.6,34.7,11.5,52,17.3,19.4-5.8,64.3-17.2,67.1-32.9h0a25.6,25.6,0,0,0,.3-3.9V270.9H282.5V383.7c0,.2.1.4.1.7.7,7.4,7.7,11.5,14.3,14.5Zm76.8-22.2h1.5v2h2.7v-3.6h-1.3v-1.8h1.3v-2.8h-1.3V372h-1.4v-1.5h-1.5V372h-1.5v-1.5h-1.5v2.8h1.5v1.8h-1.5v3.6h3Zm46,6.5c.6,16.7-25.3,21-70.8,37.7-43.3-14.6-69-18.2-69.8-34.2V267.9H419.7V383.2ZM317,199.1v-2.9c5.6-.1,11.9,2,15.2,2.7l1.9,4.3c-4.7-1.8-11.9-4.1-17.1-4.1Zm25.5-13.2v.2a4.5,4.5,0,0,1-3.5,5.5,4.6,4.6,0,0,1-5.6-3.4c-.1,0-.1-.1-.1-.2l9.2-2.1Zm60.1,237.3a.8.8,0,0,1,.1.3l-.2-.3Zm.2,0,.3.7a1.6,1.6,0,0,1-.4-.7Zm75.5-102.6c.6,0,4.1,2.1,4.8,2.1-4.2-12.5-3.3-30.1-2.9-49.8,1.3.6,3.9,2.7,5.2,3.2a158.7,158.7,0,0,1-.8-19.9c0-39-20.5-49.5-36.5-53.8-28.7-6.5-48.6,16-41.7,39.8-1.7,7.4-5.8,13.1-12.9,16.2s-13.9,2.5-17.3-4a9,9,0,0,0,4.6,1.5c-1.8-1.8-2.8-4.4-3.6-7.5h0c-1.3-5-2.2-11.2-5.4-16.7,3.2,2.8,4.3,5.6,5.4,8.1,1.6-7.3-.6-16.3-4-20.3,2.8,1.4,2.9,1,4.9,3.1a12.6,12.6,0,0,0-1.4-8.3c-.1-5.8-.7-7.7-3.5-11.1a7.7,7.7,0,0,0,7.5-.4c-3.8-1.3-6.4-3.5-9.1-7.6s-9-11.4-16-13.6c-5.5-1.8-10.3-1.5-20,.2-2.7.4-9.2,2.6-15.2,2.3l.5,3.2-3.1.8-.9.2v-3.1h.1v-6.8a118.9,118.9,0,0,1,12,.9l-.2-8c-4.2.6-8.2.9-12.5,1.2.5-3.9.9-7.5,1.6-11.4a75.1,75.1,0,0,1-8.2.1,103.8,103.8,0,0,1,1.4,11.2c-4-.2-7.8-.5-11.8-1l.3,7.7c1.7-.2,9.1-.4,11.6-.4v10.9c-4.2,1.4-7.9,4.4-4.5,12.4,1.2-2.7,2.1-4.5,4.6-5.3,0,12.7.9,26.6-2.3,38.8,4.5-1.6,6-1.6,10.6-.2-3-10.6-2.8-22.1-2.5-33.1l1.3.2c6.6.8,13.4,3.3,15.2,10.7s-3.6,10.5-6.6,15.9c-5.6,11.3-3.5,20.5-8.8,26a16,16,0,0,0,3.7-.1c-4.2,5.6-12.2,5.6-18.1,3.9s-9.8-7.6-11.9-14.3c9-28.8-21.2-47.1-42.8-40.8-11.6,3.4-34,10.7-34.9,54.4-.7,6.4.4,10.2-1.3,16.7a23.2,23.2,0,0,0,4.6-1.8c0,18.1-.1,42.4-3.8,50.4a10,10,0,0,0,4.7-2.4c1.6,74.9,2.5,129.9-2.9,142.9,8.2-2.6,11.9-3.7,16.5-9.4a52.3,52.3,0,0,0,6.4-1.2V361.4c-3.5-13.6-7-27.2-10.3-40.8-1.2-5.3-1.4-8.8.1-14.1l1.6-5.4,4.3,3.7a25.2,25.2,0,0,1,4.3,4.4v-57a2.2,2.2,0,0,1,2.1-2.1,2.1,2.1,0,0,1,2,2.1v65.2c9.4,26.6,16.5,54.1,23.7,81.4V240.5a2,2,0,0,1,2.1-2,2,2,0,0,1,2,2V414.3c.5,1.7.9,3.5,1.4,5.2,4-5.3,6.5-11,7.9-19.5,2.6,3.5,7.1,6.4,13.3,9.2-5.1,8.7-5.8,11.3-14.1,15.6,6,2.5,12,3,17.3-.3l-.3.9c-1.7,3-2.8,5.7-4.3,8.1s-3.3,4.4-5.5,7c-4.5,1.4-6.6-.8-11.5.3h-.3a4,4,0,0,1-.4-1.7,2,2,0,0,0,1.4-1.1,2.7,2.7,0,0,0,1.9-1,1.8,1.8,0,0,0,1.9-1l6.9-2.1c.8.4,1.9.7,2.2.1,2.3-1,2.8-2.3,3-3.2a4.2,4.2,0,0,0-4.6-.9c-.8-.5-1.4.7-1.5,1.2l-7.1,2.1a12.3,12.3,0,0,0-4.4.4,2.6,2.6,0,0,0-1.8-.4c-10.5-37.2-19.9-78.7-32.8-115.3a21.9,21.9,0,0,0-7.2-10.5c-1.3,4.7-1.1,7.5,0,12.3,8.8,36.9,20.8,79.1,30.5,116.1.1,0-1.4.5-1.8,1.2a2.5,2.5,0,0,0-2.1.9,1.7,1.7,0,0,0-1.7,1l-6.7,2.1c-.9-.3-1.5-.5-2.1.1a4.9,4.9,0,0,0-3.5,3,4.8,4.8,0,0,0,4.6.9,2.2,2.2,0,0,0,2.1-1.3l6.6-1.9c.5.6,1.6.3,2.2,0a2.6,2.6,0,0,0,2.3-.3,2.2,2.2,0,0,0,2.1.3h.5c.1.3.5,1.5.8,2.6-4.6,1.9-5,3.9-4,6a3.6,3.6,0,0,0,.2,1.1c-2.4.7-4.3,3.6-3,5.9a3.6,3.6,0,0,0,1.6,2.7h.2c-1.6,1.9-2.8,5.4,2.3,6.2-.8,4.1,1.8,4,3.6,4.6a8.6,8.6,0,0,0,3.6,1.7,14.4,14.4,0,0,1,6.4,1.9,7.4,7.4,0,0,0,5.6-.5,3.8,3.8,0,0,0,1.9-2.1c2.8-1.4,3.4-1.9,3.9-5,2.8-3.6,4.9-12.8,5.5-14.6,2.6-8.1,7-14.9,12.3-21.8-.9,5.8.3,12.5,4.9,15.9.7-12.4,5.8-18.7,11.4-27.2l5,1.5c-4.1,14.1-7.6,25.1-13.8,35.5h.3c-5,8.4-11.8,16.4-22,25.5,3.8,3.5,8.8,6.7,13,10.5a57.1,57.1,0,0,1-3.9,4.7l18.2,11.2c-1.2,2.4-2.6,3.9-4.3,6.5,13.3,8.5,20,11.7,33.5,19.5.2,0,22.2-10.4,36-18.4l-3.9-6c7.5-4.5,13.8-8.6,19.6-12.3-1.5-1.8-2.5-2.8-4.1-4.8,7.3-5.2,7.9-5.6,13.5-9.9-23-21.4-31-38.7-39.8-63.1l7.4-2.6c6.9,9.7,10.4,13.7,13.3,26.9,4.8-4.6,3.7-9.2,4-15.6l.6.6h-.1l-.2-.2h0l-.2-.2c5.2,8.7,8.4,13.5,12.5,20.4.5,3.9.5,6,1.5,8.1h.1a19.7,19.7,0,0,0,3.6,5.3c0,2.7,2.4,5.3,4.5,6.3a3.3,3.3,0,0,0,.7,1.7c1.6,1.6,5.8,1.8,8.2,1.3s2.8-1.3,4.5-1.8l3.8-.8a41.1,41.1,0,0,1,3.8-1.6,2.8,2.8,0,0,0,0-4.1c2.5-1.6,5.9-3.6,2.6-5.9l-.6-.4a5.9,5.9,0,0,0-.7-7.4c0-4-1.9-6.1-4.9-8.7h-.2c5.6-18.9,11.6-43.4,17.4-65.3,2.5.2,2.9-1.2,3.3-2.6s2.2-1.8.9-3.4c2.4-1,2.6-2.4,1.9-4.2,7.3-8.3,12.4-13.7,13.3-16.5s-1.7-8.9-4-17.4c.2-.9.8-3-1.6-3.6l-.5-.6a2.3,2.3,0,0,0,1.3-2.1,2.4,2.4,0,0,0-2.5-2.3,2.3,2.3,0,0,0-2.4,2.3,2,2,0,0,0,.2,1.1,4.7,4.7,0,0,0-1.5.6c-2.2-.5-3.5,1.4-4,2.7-5.6,6-11.3,10.3-12.5,13.2s-.1,9,1.7,19.2c-2.3,1-2.6,2.9-1.2,4.8-2.1.6-2.2,2-1,3.4a3,3,0,0,0,1.2,3.6c-5.3,21.1-10.9,39.9-19,64.6-1.5-.4-8.3.8-12.7-.9a108.9,108.9,0,0,1-8.7-14.1c6,1.6,8.4,1.2,15.6-.1-8.1-4.6-10.8-6.5-16.1-14.7,6.8-3.2,11.2-5.9,14.3-9.7,1.8,9.4,4.4,14.5,10.4,18.7l1.5-4.8v-171a2,2,0,0,1,2-2,2,2,0,0,1,2.1,2V398.8c2.3-8,4.5-16.1,6.5-24.2a5.9,5.9,0,0,1-.9-3.7,5.2,5.2,0,0,1,.3-5.5,6.1,6.1,0,0,1,1.7-5.1,95.8,95.8,0,0,1-1.3-10.6,37.6,37.6,0,0,1,0-7.5v-.4l.2-.5c1-2.3,3.5-4.8,5.4-6.6s5-4.7,7.4-7.2a7.3,7.3,0,0,1,4.3-4V253.4a2.1,2.1,0,0,1,2.1-2.1,2,2,0,0,1,2,2.1v66.2a6.7,6.7,0,0,1,2.4-.4,6,6,0,0,1,6.1,5.9,5.3,5.3,0,0,1-.1,1.3,4.4,4.4,0,0,1,1.1,2.5,6.5,6.5,0,0,1,0,2.4c.9,3.4,2,6.7,2.9,10s1.4,5.8.9,8.3v.2h0c-.8,2.5-3.2,5.4-4.9,7.4l-7.9,9a5,5,0,0,1-.4,2.7v80.2a17.2,17.2,0,0,0,8.3,2.7c5,4.3,8,5.5,14.8,7-8.2-9.6-4.9-79.7-5.2-138.3ZM249.7,437.3l4.6-1.3a4.9,4.9,0,0,1,2.3-1.4,6.7,6.7,0,0,1,1.2-.6c-5-19.1-10.2-38.1-15.4-57.2v63.4a8,8,0,0,1,3.7-2.3,5,5,0,0,1,3.6-.6Zm204-58.6c-1.7,6.2-3.3,12.4-4.9,18.6-2.8,11.1-5.7,22.3-8.7,33.3,3.7,4,7.6,7.5,10.6,8.2a28.9,28.9,0,0,0,5.6,7.2V376.6a4.9,4.9,0,0,1-2.6,2.1Zm-58.6-2h1.4v2h2.8v-3.6H398v-1.8h1.3v-2.8H398V372h-1.5v-1.5h-1.4V372h-1.5v-1.5h-1.5v2.8h1.5v1.8h-1.5v3.6h3Zm-6.9,4.1h-1.4v2.8h1.4v1.8h-1.4v3.7h2.9V387h1.5v2.1H394v-3.7h-1.4v-1.8H394v-2.8h-1.4v1.5h-1.4v-1.5h-1.5v1.5h-1.5Zm-10.6,0h-1.5v2.8h1.5v1.8h-1.5v3.7h3V387h1.4v2.1h2.8v-3.7h-1.4v-1.8h1.4v-2.8h-1.4v1.5h-1.4v-1.5h-1.4v1.5h-1.5Zm6.8-4.1h1.4v2h2.8v-3.6h-1.3v-1.8h1.3v-2.8h-1.3V372h-1.5v-1.5h-1.4V372h-1.5v-1.5h-1.5v2.8h1.5v1.8h-1.5v3.6h3v-2Zm14.5,4.1h-1.5v2.8h1.5v1.8h-1.5v3.7h3V387h1.4v2.1h2.8v-3.7h-1.3v-1.8h1.3v-2.8h-1.3v1.5h-1.5v-1.5h-1.4v1.5h-1.5Zm6.8-4.1h1.5v2H410v-3.6h-1.4v-1.8H410v-2.8h-1.4V372h-1.4v-1.5h-1.5V372h-1.4v-1.5h-1.5v2.8h1.5v1.8h-1.5v3.6h2.9Zm-41.5-71.6c1.8,0,2.6-.3,5.6-1.2a2.6,2.6,0,0,0,.2,2.8,3.9,3.9,0,0,0,1,2.7,2,2,0,0,0,.6,1.9c.4,3.1,1.2,4.7,3.3,8.4-1.5.6-2.9,1.6-2.9,3.6s3,3.8,5.1,3.8c1.1,1.7,2.1,2.2,3.5,2.2a3.7,3.7,0,0,0,3.5-2.2c2.2,0,5.2-1.1,5.2-3.8s-1.4-3-2.9-3.6c2-3.7,2.9-5.3,3.2-8.4a1.7,1.7,0,0,0,.7-1.9,3.9,3.9,0,0,0,1-2.7,2.6,2.6,0,0,0,.2-2.8c2.9.9,3.7,1.2,5.6,1.2,5.8,0,7.1-2.5,8.9-5.2-5.2,1.2-6.4-3.2-10.9-3.2,1.8-.1,3.5-3.4,3.5-8.1s-5-12.3-10.8-12.3c4.3,1.9,5.8,6.1,5.6,9.8s-2.1,5.7-4,6.9c-2.6-1.4-3.9-1-6.1,1.5a2.5,2.5,0,0,0-2.7-1.9,2.5,2.5,0,0,0-2.7,1.9c-2.1-2.5-3.5-2.9-6.1-1.5-1.8-1.2-3.8-2.1-4-6.9s1.4-7.9,5.6-9.8c-5.7,0-10.7,6.7-10.7,12.3s1.7,8,3.6,8.1c-4.5,0-5.8,4.4-11,3.2,1.8,2.7,3.2,5.2,8.9,5.2Zm12.6-15.3,3.7-2,4.1,2-.5-4.1,3-3.1-4.2-.8-2.4-4.3-2,4.3-4.6.8,3.5,2.9-.6,4.3ZM359,321.2c-4,1.2-3.5,1.4-3.6,2.3s.9.8,1.8,1.4.8,1.4,1.8,1.4,1.8-.3,1.8-3.7c0,3.6.8,3.2,1.6,3.6s1-.5,2.1-1.2,1.4-.6,1.6-1.4.6-1.3-3.4-2.4c3.7,1,3.9.6,4.5-.1s-.6-1.4-.9-2.2-.1-1.4-.7-1.9-1.2-.7-3.7,2c2.6-2.9,2-3,1.3-3.8s-1.7,0-2.6-.1a3.2,3.2,0,0,0-2.3.5c-.2.4-1.2.8,1.3,3.5-2.7-2.8-2.7-1.9-3.6-1.9s-.4,1.1-.8,1.9-1,1.1-.7,1.9.6,1.3,4.5.2Zm47.3-3.2c-.2-4-11.2-4.2-11.2,3.6s11.2,7.1,11.4,2.7c-2.9,1.8-6.4-.3-6.4-2.7S403.4,316.8,406.3,318ZM142.4,238.8a47.5,47.5,0,0,0,4.9-14.9l-12.4-6.4c-2.4-1.2-3.5-1.2-5,.8l-3.6,4.9-5.5-2.9,11.4-21.8,5.5,2.8-1.2,4c-.7,2.5-.1,3.1,2.2,4.3l16.4,8.4c-.4,5.9-.9,15.6-6.3,25.8-10.3,19.7-26.9,21.6-48.4,10.5-19.7-10.1-30.7-27.2-19.5-48.4a47.5,47.5,0,0,1,16.7-19.1l14.5,9.3-3.5,6.7-11.3-3.3a32.7,32.7,0,0,0-10.9,12.8c-3.8,7.2-3.2,11.6-1.9,15.8s12.9,13.3,19.9,16.9c15.4,7.9,30.5,8.2,38-6.2Zm51.3-89c12.9,13.3,7.3,28.1-2.2,37.1-12.1,11.6-24.6,10.9-36-.7l-27.9-28.7c-1.8-1.9-2.8-2.3-5-.7l-4.6,3.1-4.3-4.4,18.9-18.1,4.3,4.4-3.3,4.5c-1.6,2.1-1.3,3.1.5,5l26.8,27.5c10.3,10.6,20,6.7,27.1-.1,3-2.9,5.6-6.9,5.8-10.9s-2-7.6-8.1-13.9L159.5,127c-1.8-1.9-2.8-2.2-4.9-.7l-4.7,3.1-4.3-4.4,18.6-17.8,4.3,4.4-3.3,4.5c-1.6,2.1-1.3,3.1.6,5Zm61.8-7.5-7,3.3L199.4,98c-2.8-2.8-5.1-2.3-7.6-1.4l-3.5,1.2-2.7-5.5,25.5-12.2,2.6,5.4-4.7,3c-1.9,1.1-2.5,1.9-1.9,3.1a10.2,10.2,0,0,0,1.5,1.9l38.1,38.1-8.4-52.3a5.3,5.3,0,0,0-.6-2.1c-.6-1.4-1.7-1.4-3.9-.6l-5.3,1.8L225.9,73l23.6-11.3,2.7,5.5-3.3,2.1c-2.3,1.4-3.1,2.4-2.6,6.2l9.2,66.8ZM288.4,129l-1-6.2,5.4-1.7c2.5-.8,2.8-1.8,2.4-4.4L287.1,64c-.4-2.6-1-3.8-3.7-3.7l-5.6.2-.9-5.8,53.5-8.1,2.1,17.8-6.6,1.1-1.8-7.2c-.6-2.5-1.9-2.7-4.4-2.4l-24.1,3.7,3.7,24.3,24.4-3.7,1.1,7.5-24.3,3.7,4.2,27.4,24.3-3.7c2.5-.3,3.7-.9,3.5-3.5l-.6-7.9,7-1,3.4,18.1L288.4,129Zm88.3-46.8,9.3,1.3c3.8.5,7.2.8,10.5-1.2s4.9-4.7,5.8-10.6c1.3-9.3-4.8-13.3-14.2-14.6L380.3,56l-3.6,26.2Zm-4.2,30.1c-.4,2.6,0,3.7,2.6,4.3l6.6,1.8-.8,6.2-27.5-3.8.9-6.1h5.6c2.7-.1,3.2-1,3.6-3.5l7.3-52.6c.4-2.6.1-3.5-2.5-4.3l-5.4-1.7.9-6.1,27.4,3.8c14.4,1.9,23.3,7.6,21.3,21.8s-14.9,17.5-21.6,17.5c2.1.8,4.3,4,5.8,7.3l9,19.4c2.2,4.5,4.9,6.3,7.5,6.6a14.7,14.7,0,0,0,3.8-.2l-1.3,5.6a15.8,15.8,0,0,1-8.6,1c-5.6-.7-8.7-5.5-11-10.3L385.2,95c-1.1-2.3-2.6-4.6-5.8-5.1l-3.7-.5-3.2,22.9Zm75,18.8c-1.2,2.3-1.3,3.4.8,5l4.4,3.5-2.9,5.4-23.2-12.5,3-5.4,5.4,1.8c2.5.9,3.3.2,4.6-2.1l25.7-46.6c1.2-2.3,1.5-3.6-.7-5.1L460.1,72l3-5.4L478.6,75l4.8,69.4,23.1-41.9c1.3-2.3,1.6-3.5-.6-5l-4.5-3.2,3-5.4,22.8,12.4-2.9,5.4-5.1-2.1c-2.5-1-3.5-.1-4.8,2.2l-31,56.4-8.1-4.4-4.7-69.4-23.1,41.7Zm102.7,63.1c-13.5,12.8-28.4,7.1-37.5-2.3-11.6-12.1-10.9-24.4.9-35.6l29.1-27.6c1.9-1.8,2.3-2.7.7-4.9l-3.1-4.7,4.5-4.2L563,133.7l-4.5,4.3-4.6-3.4c-2.1-1.6-3.1-1.2-5,.6l-27.8,26.4c-10.8,10.2-6.9,19.8,0,26.9,2.9,3,6.9,5.5,10.9,5.7s7.7-1.9,14.1-7.9l27.2-25.8c1.9-1.9,2.3-2.8.8-5l-3.2-4.6,4.5-4.3,17.9,18.6-4.5,4.2-4.5-3.3c-2.1-1.6-3.1-1.3-5,.5l-29.1,27.6Zm-7.8,31.3,5.5-2.8,3.4,4.6c1.5,2.1,2.6,2,4.9.9l47.8-24c2.3-1.2,3-2,2.1-4.5l-1.6-5.4,5.5-2.7,12.2,23.8-5.5,2.8-3.7-5.1c-1.6-2.1-2.6-2.1-5-.9l-50.8,25.5,9.5,18.5c1.1,2.3,2.1,3.2,4.5,2.2l7.4-3,3.2,6.3-16.4,8.9-23-45.1Zm-435,226.3,4.2,8.6c1.7,3.6,3.3,6.7,7,8.4s6.9,1.5,12.4-1.2c8.8-4.2,8.9-11.6,4.7-20.3l-3.5-7.2-24.8,11.7ZM79,465.3c-2.5,1.2-3.2,2.1-2.3,4.7l2.2,6.6-5.8,2.8L60.7,453.9l5.8-2.7,3.4,4.7c1.5,2.3,2.6,2.2,5,1.1l49.7-23.6c2.4-1.2,3.1-2,2.4-4.6l-1.6-5.5,5.7-2.8L143.4,446c6.5,13.4,6.7,24.1-6.8,30.5s-23.6-2.8-27.5-8.5c.5,2.3-.9,6-3,9.2L94.4,495.8c-2.6,4.4-2.6,7.7-1.4,10.1a13.8,13.8,0,0,0,2.3,3.1l-5.6,2.1a15.4,15.4,0,0,1-5.8-6.7c-2.5-5.2-.1-10.5,2.8-15.2l14.5-22.9c1.4-2.2,2.5-4.8,1.1-7.8l-1.7-3.5Zm88,40.4c-5.7.4-16.4,7.6-23.2,14.5-13.8,13.7-15.9,28.3-4.3,39.6,5,5,10,7.6,15.7,7.2s16.4-7.7,23.3-14.5c13.7-13.8,15.8-28.4,4.2-39.7C177.7,507.9,172.8,505.3,167,505.7Zm-35.9,57.1c-16.4-16.1-10.8-34,5.7-50.4,14.5-14.5,35.5-21,54.4-2.5,16.3,16,10.7,34-5.7,50.4-14.5,14.5-35.6,21-54.4,2.5ZM193,613.2l2.4-5.9,5.7,1.2c2.6.6,3.2-.1,4.4-2.5l24.3-50.5c.8-1.9.3-3.1-1.8-4.2l-5-2.7,2.3-5.9,20.2,8L242,617l41.3-51.5,21.3,8.4-2.3,5.9-5.9-1.6c-2.5-.6-3.5-.2-4.4,2l-16.7,53.2c-.8,2.6-.9,3.5,1.4,4.9l5.6,3.2-2.4,5.9-25.7-10.1,2.3-5.9,5.7,1.5c2.3.6,3.4-.1,4.2-2l16.8-52.8-43.7,53.4-7.1-2.8,3.1-69.4-22.9,50.2c-.8,2.1-.6,3.3,1.6,4.6l5.1,2.7-2.3,5.8-24-9.4Zm154.7-29.5-1.2,4.8-10.3,30.4,23.4-.2-10.7-30.2-1.2-4.8Zm4.8-21.9,12.5,12-4.1,2.9-12.4-9.4-12.2,9.5L332,574l12.4-12.2Zm-8.9,12.6h10.1l23.7,65.1c1.3,3.8,2.5,4.4,5.2,4.9l4.2.7v6.4l-27.9.2v-6.1l5.9-1.1c2-.3,2.8-1.2,2.8-2.6a6.3,6.3,0,0,0-.4-2.1l-4.9-13.6-28.7.2-4.5,13.4a6.4,6.4,0,0,0-.4,2.2c0,1.6,1,2.5,3,2.8l5.8.9v6.1l-26.1.2v-6.3l4.1-.8c2.7-.5,3.8-1.2,5.1-5Zm97,52.4c1,2.5,1.7,3.3,4.4,2.7l5.7-1.2,2.4,5.9L427.8,644l-2.3-5.9,5-2.9c2.4-1.4,2.4-2.5,1.4-5l-20.1-50.9c-1-2.5-1.9-3.5-4.6-2.8l-5.4,1.4-2.4-5.9,17-6.6,58.5,42.1-18.1-45.7c-1-2.5-1.8-3.6-4.4-2.9l-5.5,1.5-2.4-5.9,25-9.7,2.3,5.9-5,2.6c-2.4,1.3-2.3,2.7-1.3,5.2L489.8,620l-8.9,3.4-58.4-42.2ZM551,577.6l-21.2,16.7-4-4.9,3.9-4.3c1.8-2,1.6-3.1-.1-5.2l-34.3-42.7c-1.6-2.1-2.6-2.6-5-1.3l-5.1,2.8-4-5L502.5,517l3.9,5-3.9,4.3c-1.8,2-1.5,3,.1,5.1l34.3,42.8c1.7,2.1,2.6,2.6,5,1.2l5.1-2.7,4,4.9Zm28.3-26.3-5.3-3.9,2.7-5.1c1.3-2.4.7-3.4-1.4-5l-44.5-32.7c-2.2-1.6-3.5-2-5.4-.1l-3.9,4.2-4.9-3.6,33.3-44.3,14.5,11.6-4.1,5.5-6.5-4c-2.3-1.4-3.4-.6-5,1.4l-15,20,20.5,15.1,15.1-20.2,6.4,4.7-15.2,20.2,23.2,17,15-20.1c1.6-2.1,2-3.3,0-5.1l-6.2-5.3,4.4-5.8,15.8,10.8-33.5,44.7Zm59.9-102.8-10,24.9-5.9-2.3,1.2-5.7c.6-2.6-.2-3.4-2.7-4.4l-51.1-20.2c-2.5-1-3.6-1-5,1.4l-3,4.9-6-2.3,10.1-25,5.9,2.4-1.2,5.6c-.6,2.7.1,3.4,2.6,4.4l51.2,20.2c2.5,1,3.6,1,5-1.3l3-5,5.9,2.4Z" fill="#fff" fill-rule="evenodd"></path></svg>  