<svg version="1.1" id="Layer_1" xmlns="http://www.w3.org/2000/svg" xmlns:xlink="http://www.w3.org/1999/xlink" x="0px" y="0px"
	 viewBox="0 0 252.7 67" style="enable-background:new 0 0 252.7 67;" xml:space="preserve">
<style type="text/css">
	.st0{enable-background:new    ;}
	.st1{fill:#1C1080;}
	.st2{fill:#1C1080;enable-background:new    ;}
	.st3{fill:#F5BCD6;enable-background:new    ;}
</style>
<g>
	<g class="st0">
		<path class="st1" d="M93.9,26.9c-1.8-1-3.2-2.3-4.2-4.1c-1-1.8-1.5-3.8-1.5-6.1c0-2.3,0.5-4.4,1.5-6.1c1-1.8,2.4-3.1,4.2-4.1
			c1.8-1,3.8-1.5,6.1-1.5c3.1,0,5.7,0.8,7.7,2.4v2.4c-1.9-1.7-4.4-2.6-7.5-2.6c-1.8,0-3.4,0.4-4.9,1.2c-1.4,0.8-2.6,1.9-3.4,3.3
			c-0.8,1.4-1.2,3.1-1.2,5c0,1.9,0.4,3.6,1.2,5c0.8,1.4,1.9,2.5,3.4,3.3c1.4,0.8,3,1.2,4.8,1.2c1.6,0,3-0.2,4.3-0.6
			c1.3-0.4,2.4-1.1,3.5-2.1v2.5c-1.9,1.7-4.6,2.5-8,2.5C97.7,28.4,95.7,27.9,93.9,26.9z"/>
		<path class="st1" d="M116.1,26.9c-1.8-1-3.2-2.3-4.2-4.1s-1.5-3.8-1.5-6.1c0-2.3,0.5-4.3,1.5-6.1s2.4-3.1,4.2-4.1s3.8-1.5,6-1.5
			c2.2,0,4.2,0.5,6,1.5c1.8,1,3.2,2.4,4.2,4.1s1.5,3.8,1.5,6.1c0,2.3-0.5,4.3-1.5,6.1s-2.4,3.1-4.2,4.1c-1.8,1-3.8,1.5-6,1.5
			C119.8,28.4,117.8,27.9,116.1,26.9z M126.7,25c1.4-0.8,2.5-1.9,3.3-3.3c0.8-1.4,1.2-3.1,1.2-5c0-1.9-0.4-3.5-1.2-4.9
			s-1.9-2.5-3.3-3.3c-1.4-0.8-3-1.2-4.7-1.2c-1.7,0-3.3,0.4-4.7,1.2c-1.4,0.8-2.5,1.9-3.3,3.3c-0.8,1.4-1.2,3.1-1.2,5
			c0,1.9,0.4,3.6,1.2,5c0.8,1.4,1.9,2.5,3.3,3.3s3,1.2,4.7,1.2C123.7,26.1,125.3,25.7,126.7,25z"/>
		<path class="st1" d="M134.9,5.5h2.6l7.5,18.9l7.5-18.9h2.6l-8.9,22.4h-2.3L134.9,5.5z"/>
		<path class="st1" d="M159,5.5h2.5v22.4H159V5.5z"/>
		<path class="st1" d="M166,5.5h6.9c2.4,0,4.5,0.4,6.2,1.3c1.8,0.9,3.1,2.2,4.1,3.8c0.9,1.7,1.4,3.6,1.4,5.9c0,3.7-1.1,6.6-3.2,8.5
			c-2.1,1.9-5.1,2.9-9,2.9H166V5.5z M172.2,25.8c3.4,0,5.9-0.8,7.5-2.3c1.6-1.5,2.4-3.8,2.4-6.9c0-2.8-0.8-5-2.3-6.6
			s-3.9-2.4-6.9-2.4h-4.4v18.2H172.2z"/>
		<path class="st1" d="M187.8,17.4h9.8v2.1h-9.8V17.4z"/>
		<path class="st1" d="M205.8,8.2l-5,3.6V9.3l5.2-3.8h2.2v22.4h-2.5V8.2z"/>
		<path class="st1" d="M215,28v-2.2c0.8,0.3,1.6,0.4,2.6,0.4c2.5,0,4.4-0.8,5.7-2.3c1.3-1.5,2-3.8,2.2-6.9c-0.6,0.9-1.4,1.6-2.5,2
			s-2.3,0.7-3.7,0.7c-1.4,0-2.7-0.3-3.8-0.9s-2-1.5-2.6-2.6c-0.6-1.1-0.9-2.4-0.9-3.8s0.3-2.7,1-3.9s1.6-2,2.7-2.6
			c1.2-0.6,2.6-1,4.2-1c2.5,0,4.4,0.8,5.9,2.4s2.2,3.9,2.2,7c0,4.5-0.9,8-2.6,10.4c-1.8,2.4-4.3,3.6-7.7,3.6
			C216.7,28.4,215.8,28.3,215,28z M223.9,16.2c1-0.9,1.6-2.2,1.6-3.8c0-0.9-0.2-1.8-0.7-2.6c-0.5-0.8-1.1-1.4-1.9-1.9
			c-0.8-0.5-1.8-0.7-2.8-0.7c-1.6,0-2.9,0.5-3.9,1.5c-1,1-1.5,2.3-1.5,3.9c0,1.6,0.5,2.9,1.5,3.8c1,0.9,2.3,1.4,3.9,1.4
			C221.6,17.6,222.9,17.2,223.9,16.2z"/>
		<path class="st1" d="M88.8,36.7h6.9c2.4,0,4.5,0.4,6.2,1.3c1.8,0.9,3.1,2.2,4.1,3.8c0.9,1.7,1.4,3.6,1.4,5.9
			c0,3.7-1.1,6.6-3.2,8.5s-5.1,2.9-9,2.9h-6.4V36.7z M95.1,56.9c3.4,0,5.9-0.8,7.5-2.3c1.6-1.5,2.4-3.8,2.4-6.9c0-2.8-0.8-5-2.3-6.6
			c-1.6-1.6-3.9-2.4-6.9-2.4h-4.4v18.2H95.1z"/>
		<path class="st1" d="M117.5,36.7h2.3l8.9,22.4h-2.6l-2.4-6h-10.3l-2.4,6h-2.6L117.5,36.7z M123.1,51l-4.5-11.4L114.2,51H123.1z"/>
		<path class="st1" d="M134.5,38.8h-7.2v-2.1h16.8v2.1H137v20.3h-2.5V38.8z"/>
		<path class="st1" d="M147.4,36.7h14.4v2.1h-11.9v8h8.9v2.1h-8.9v8h11.9v2.1h-14.4V36.7z"/>
		<path class="st1" d="M177.8,36.7h2.5v20.3h11.9v2.1h-14.4V36.7z"/>
		<path class="st1" d="M203.1,36.7h2.3l8.9,22.4h-2.6l-2.4-6h-10.3l-2.4,6h-2.6L203.1,36.7z M208.7,51l-4.5-11.4L199.8,51H208.7z"/>
		<path class="st1" d="M229.7,57.3l13.1-18.5H230v-2.1h15.8v1.8l-13,18.5h13.5v2.1h-16.6V57.3z"/>
		<path class="st1" d="M250.2,36.7h2.5v22.4h-2.5V36.7z"/>
	</g>
	<rect x="88.8" y="61.7" class="st2" width="163.8" height="2.5"/>
	<circle class="st3" cx="33.5" cy="33.5" r="33.5"/>
</g>
</svg>
