<svg xmlns="http://www.w3.org/2000/svg" viewBox="0 0 233 40"><path d="M56 16.1a6.4 6.4 0 0 1-2.5-2.4 7.8 7.8 0 0 1-.9-3.7 7.8 7.8 0 0 1 .9-3.7A7.2 7.2 0 0 1 56 3.9a7.8 7.8 0 0 1 3.7-.9 6.9 6.9 0 0 1 4.6 1.5v1.4a6.3 6.3 0 0 0-4.5-1.5 5.9 5.9 0 0 0-2.9.7 6.4 6.4 0 0 0-2 2 6.3 6.3 0 0 0-.7 3 6.3 6.3 0 0 0 .7 3 6.4 6.4 0 0 0 2 2 5.9 5.9 0 0 0 2.9.7 7.5 7.5 0 0 0 2.6-.4 5.7 5.7 0 0 0 2.1-1.3v1.5a7.1 7.1 0 0 1-4.8 1.5 7.9 7.9 0 0 1-3.7-1zm13.3 0a6 6 0 0 1-2.5-2.5 7.4 7.4 0 0 1-.9-3.6 7.4 7.4 0 0 1 .9-3.6 7.5 7.5 0 0 1 2.5-2.5 7.6 7.6 0 0 1 7.2 0A7.5 7.5 0 0 1 79 6.4a7.4 7.4 0 0 1 .9 3.6 7.4 7.4 0 0 1-.9 3.6 6 6 0 0 1-2.5 2.5 7.5 7.5 0 0 1-7.1 0zm6.4-1.2a6.4 6.4 0 0 0 2-2 6.3 6.3 0 0 0 .7-3 6.3 6.3 0 0 0-.7-3 6.4 6.4 0 0 0-2-2 5.9 5.9 0 0 0-5.6 0 6.4 6.4 0 0 0-2 2 6.3 6.3 0 0 0-.7 3 6.3 6.3 0 0 0 .7 3 6.4 6.4 0 0 0 2 2 6.1 6.1 0 0 0 5.6 0zm4.8-11.6h1.6l4.5 11.3L91 3.3h1.6l-5.3 13.3h-1.4zm14.4 0h1.5v13.3h-1.5zm4.2 0h4.1a8 8 0 0 1 3.7.8 5.3 5.3 0 0 1 2.4 2.3 7.2 7.2 0 0 1 .8 3.5 6.6 6.6 0 0 1-1.9 5 8.1 8.1 0 0 1-5.4 1.7h-3.7zm3.7 12.1a6.7 6.7 0 0 0 4.5-1.4 5.6 5.6 0 0 0 1.4-4.1 5.2 5.2 0 0 0-1.4-3.9 5.6 5.6 0 0 0-4.1-1.4h-2.6v10.8zm9.3-5h5.9v1.2h-5.9zm10.8-5.5l-3 2.1V5.6l3.1-2.3h1.3v13.3h-1.5zm5.5 11.8v-1.3l1.6.2a4.1 4.1 0 0 0 3.4-1.4 6.7 6.7 0 0 0 1.3-4.1 3.5 3.5 0 0 1-1.5 1.2 5.4 5.4 0 0 1-2.2.4 4.6 4.6 0 0 1-2.3-.5 3.6 3.6 0 0 1-1.5-1.5 4.6 4.6 0 0 1-.5-2.3 4.6 4.6 0 0 1 .6-2.3 4.1 4.1 0 0 1 1.6-1.6 5.4 5.4 0 0 1 2.5-.6 4.6 4.6 0 0 1 3.5 1.4 5.9 5.9 0 0 1 1.3 4.2 10.3 10.3 0 0 1-1.6 6.2 5.5 5.5 0 0 1-4.6 2.1zm5.3-7.1a2.8 2.8 0 0 0 .9-2.3 2.9 2.9 0 0 0-1.6-2.6 3.3 3.3 0 0 0-1.7-.4 3.1 3.1 0 0 0-3.2 3.2 2.8 2.8 0 0 0 .9 2.3 3.6 3.6 0 0 0 4.7-.1zM52.6 36.8h177.9v1.5H52.6z" fill="#1c1080"/><circle cx="20" cy="20" r="20" fill="#f6dd63"/><path d="M56.1 34.7a6.4 6.4 0 0 1-2.5-2.4 8.1 8.1 0 0 1 0-7.4 7.2 7.2 0 0 1 2.5-2.4 7.4 7.4 0 0 1 3.6-.9 7 7 0 0 1 4.6 1.4v1.5a6.1 6.1 0 0 0-4.5-1.6 5.9 5.9 0 0 0-2.9.7 6.4 6.4 0 0 0-2 2 5.8 5.8 0 0 0 2 8 5.9 5.9 0 0 0 2.9.7 7.5 7.5 0 0 0 2.6-.4 5.7 5.7 0 0 0 2.1-1.3V34a7.1 7.1 0 0 1-4.8 1.5 7.6 7.6 0 0 1-3.6-.8zm10.7-12.8h8.6v1.3h-7.1V28h5.3v1.3h-5.3V34h7.1v1.3h-8.6zm21.7 1.2h-4.3v-1.2h10.1v1.3H90v12.1h-1.5zm7.7-1.2h5.2a4.6 4.6 0 0 1 3.2 1 3.6 3.6 0 0 1 1.1 2.9 3.8 3.8 0 0 1-3.3 3.8l3.2 5.8H104l-3.1-5.7h-3.2v5.7h-1.5zm5 6.4a3.4 3.4 0 0 0 2.2-.7 2.4 2.4 0 0 0 .8-1.9 2.2 2.2 0 0 0-.8-2 3.3 3.3 0 0 0-2.2-.6h-3.5v5.2zm6.7-6.4h8.6v1.3h-7.1V28h5.3v1.3h-5.3V34h7.1v1.3h-8.6zm10.9 0h5.9a3.2 3.2 0 0 1 3.6 3.6 3.7 3.7 0 0 1-.5 1.8 2.8 2.8 0 0 1-1.3 1.1 2.9 2.9 0 0 1 2.2 3.2 4.6 4.6 0 0 1-.5 2 3.3 3.3 0 0 1-3.2 1.7h-6.3zm5.8 5.9a2.3 2.3 0 0 0 1.6-.6 2.7 2.7 0 0 0 .6-1.7 2.8 2.8 0 0 0-.6-1.8 2.4 2.4 0 0 0-1.8-.5h-4.2v4.6zm.1 6.2a3.1 3.1 0 0 0 1.9-.6 2.2 2.2 0 0 0 .6-1.9 2.3 2.3 0 0 0-.7-1.9 3.2 3.2 0 0 0-2.1-.6h-4.2v5zm7.6.2a5 5 0 0 1-1.3-3.7v-8.6h1.5v8.7a3.4 3.4 0 0 0 1 2.7 5 5 0 0 0 5.7 0 3.4 3.4 0 0 0 1-2.7v-8.7h1.5v8.6a5 5 0 0 1-1.3 3.7 6.6 6.6 0 0 1-8 0zm12-12.3h1.5v13.4h-1.5zm4.1 0h8.6v1.3h-7.1V28h5.3v1.3h-5.3V34h7.1v1.3h-8.6zM168 35.3l-1.8-.5v-1.4a10.5 10.5 0 0 0 3.9.8 5.4 5.4 0 0 0 2.5-.6 1.9 1.9 0 0 0 .8-1.7 2.7 2.7 0 0 0-.3-1.2 3.9 3.9 0 0 0-1-.8L170 29a9.5 9.5 0 0 1-2.7-1.7 3.2 3.2 0 0 1-.9-2.3 3.7 3.7 0 0 1 .5-1.8 4.4 4.4 0 0 1 1.5-1.2 5.9 5.9 0 0 1 2.3-.4l1.9.2 1.7.5v1.4a8 8 0 0 0-3.4-.7 4.6 4.6 0 0 0-2.3.6 1.8 1.8 0 0 0-.8 1.5 2 2 0 0 0 .3 1.1 2.8 2.8 0 0 0 1 .9l1.9.9 2.2 1a3.4 3.4 0 0 1 1.2 1.2 3.9 3.9 0 0 1 .4 1.8 3.2 3.2 0 0 1-1.2 2.6 5.7 5.7 0 0 1-3.6.9zm13.3-13.4h1.4l5.3 13.4h-1.5l-1.4-3.6h-6.2l-1.4 3.6H176zm-1.2-1.5a2.4 2.4 0 0 1-.7-1.8h1.1a1.5 1.5 0 0 0 .4 1.1 1.8 1.8 0 0 0 2.2 0 1.5 1.5 0 0 0 .4-1.1h1.1a2.4 2.4 0 0 1-.7 1.8 3.2 3.2 0 0 1-3.9 0zm4.6 10.1l-2.7-6.9-2.6 6.8zm12.9-8.6h8.6v1.3h-7.1V28h5.3v1.3h-5.3v6.1h-1.5zm13.5 0h1.4l5.3 13.4h-1.5l-1.4-3.6h-6.2l-1.4 3.6h-1.5zm3.3 8.5l-2.7-6.8-2.6 6.8zm7.7 4.3a6.4 6.4 0 0 1-2.5-2.4 8.1 8.1 0 0 1 0-7.4 7.2 7.2 0 0 1 2.5-2.4 7.4 7.4 0 0 1 3.6-.9 6.9 6.9 0 0 1 4.6 1.5v1.5a6.1 6.1 0 0 0-4.5-1.6 5.9 5.9 0 0 0-2.9.7 6.4 6.4 0 0 0-2 2 5.8 5.8 0 0 0 2 8 5.9 5.9 0 0 0 2.9.7 7.5 7.5 0 0 0 2.6-.4 5.7 5.7 0 0 0 2.1-1.3V34a7.1 7.1 0 0 1-4.8 1.5 7.6 7.6 0 0 1-3.6-.8z" fill="#1c1080"/></svg>
