<svg xmlns="http://www.w3.org/2000/svg" viewBox="0 0 272.3 100"><path fill="#002781" d="M40 2L25.8 4.2 0 50l25.8 45.8L40 98 12.5 50 40 2z"/><path fill="#d00a1e" d="M76.3 2l14.2 2.2L116.3 50 90.5 95.8 76.3 98l27.5-48L76.3 2z"/><path fill="#ffe35c" d="M40 2l18.1-2v50H12.5z"/><path fill="#efc400" d="M40 98l18.1 2V50H12.5z"/><path fill="#ffe35c" d="M76.3 98l-18.2 2V50h45.7z"/><path fill="#fff6c8" d="M76.3 2L58.1 0v50h45.7z"/><path d="M149.8 30.2a28.2 28.2 0 0 1-7.1.9 15.1 15.1 0 0 1-5.1-.8 6.7 6.7 0 0 1-3-2.5 13.8 13.8 0 0 1-1.5-4 56.3 56.3 0 0 1-.3-5.8q0-7.4 2.1-10.2c1.4-1.9 4-3 7.6-3a30.9 30.9 0 0 1 7.5 1.1l-.2 4.1a30.8 30.8 0 0 0-6.1-.6 7.1 7.1 0 0 0-3.5.7 4.1 4.1 0 0 0-1.5 2.4 26.8 26.8 0 0 0-.5 6.3c0 2.9.3 5 1 6.1s2.1 1.7 4.1 1.7a46.2 46.2 0 0 0 6.5-.5zm4.5-16.2c1.3-1.7 3.5-2.5 6.6-2.5s5.2.8 6.6 2.5a12 12 0 0 1 2 7.2c0 6.5-2.8 9.8-8.6 9.8s-8.6-3.3-8.6-9.8a11.6 11.6 0 0 1 2-7.2zm3.8 11.4a3 3 0 0 0 2.8 1.4 2.7 2.7 0 0 0 2.7-1.4 8.5 8.5 0 0 0 .8-4.2 8.8 8.8 0 0 0-.8-4.2 2.9 2.9 0 0 0-2.7-1.3 3.1 3.1 0 0 0-2.8 1.3 8.9 8.9 0 0 0-.8 4.2 8.9 8.9 0 0 0 .8 4.2zm30.9-21v26.2h-5v-.8a10.1 10.1 0 0 1-4.5 1.2c-2.7 0-4.6-.7-5.7-2.3s-1.5-4-1.5-7.5.6-5.8 1.9-7.4 3.2-2.3 5.8-2.3l3.3.3.7.2V4.4zm-5.5 21.7h.5v-9.9a14.7 14.7 0 0 0-3.6-.4c-2.1 0-3 1.8-3 5.4a8.4 8.4 0 0 0 .7 4.1 2 2 0 0 0 2.1 1.2 12.4 12.4 0 0 0 3.3-.4zm15.2-.3a3.8 3.8 0 0 0 2.5.9c2.3 0 4.4-.2 6.2-.3l1.1-.2V30a34.1 34.1 0 0 1-7.8 1.1c-2.7 0-4.9-.8-6.1-2.3s-1.9-3.9-1.9-7.3c0-6.6 2.7-10 8.3-10s8.1 2.7 8.1 8.4l-.3 3.5h-10.9a3.3 3.3 0 0 0 .8 2.5zm5.5-6.3a4.9 4.9 0 0 0-.7-3.1 2.9 2.9 0 0 0-2.5-.9 3 3 0 0 0-2.5.9 4.6 4.6 0 0 0-.8 3zm22.7-3.3v14.4h-5.1V16.2h-2v-4.3h2v-.8c0-2.7.4-4.6 1.2-5.6s2.2-1.5 4.3-1.5a18.6 18.6 0 0 1 3.4.4h.9v4.2h-2.8a1.6 1.6 0 0 0-1.5.6 3.7 3.7 0 0 0-.3 2.1v.7h4.6v4.3zm8.3-2.2c1.3-1.7 3.5-2.5 6.5-2.5s5.3.8 6.6 2.5a11.6 11.6 0 0 1 2.1 7.2c0 6.5-2.9 9.8-8.7 9.8s-8.6-3.3-8.6-9.8a11.4 11.4 0 0 1 2.1-7.2zm3.9 11.4a2.7 2.7 0 0 0 2.7 1.4 2.7 2.7 0 0 0 2.7-1.4 8.5 8.5 0 0 0 .8-4.2 7.8 7.8 0 0 0-.8-4.2 3.5 3.5 0 0 0-5.4 0 10.2 10.2 0 0 0-.9 4.2 7.7 7.7 0 0 0 .9 4.2zm15 5.2V11.9h4.9v2a17.2 17.2 0 0 1 6-2.4v5a48.4 48.4 0 0 0-5.1 1.4l-.8.2v12.5zM138.9 59.5V68h-5.2V42.5h9.9c6 0 8.9 2.8 8.9 8.4 0 3.4-1.2 5.8-3.8 7.3l3.7 9.8h-5.7l-2.9-8.5zm7.5-5.5a4.1 4.1 0 0 0 .9-3 3.5 3.5 0 0 0-3.6-4H139v8.1h4.8a3.8 3.8 0 0 0 2.6-1.1zm10.7-2.6c1.4-1.6 3.6-2.5 6.6-2.5s5.4.9 6.6 2.5 2 4.1 2 7.2c0 6.6-2.8 9.8-8.6 9.8s-8.6-3.2-8.6-9.8a11.6 11.6 0 0 1 2-7.2zm3.9 11.4a2.8 2.8 0 0 0 2.7 1.4 2.9 2.9 0 0 0 2.8-1.4 9.8 9.8 0 0 0 .8-4.2 8.8 8.8 0 0 0-.8-4.2 2.9 2.9 0 0 0-2.8-1.3 3 3 0 0 0-2.7 1.3 8.7 8.7 0 0 0-.7 4.2 8.5 8.5 0 0 0 .7 4.2zm20 5.2h-5V49.3h5v1a8.6 8.6 0 0 1 4.4-1.5 5.9 5.9 0 0 1 4.6 1.7 16 16 0 0 1 6.4-1.7c2.4 0 4.1.7 5.2 2.1s1.4 3.7 1.4 6.9V68h-5V58a10.2 10.2 0 0 0-.5-3.5 2.1 2.1 0 0 0-2.1-1.1 10.5 10.5 0 0 0-3 .5l-.5.2c.1 1.9.2 3.3.2 4.3V68H187v-9.6a10.7 10.7 0 0 0-.4-4c-.3-.8-1.1-1.1-2.1-1.1a9.3 9.3 0 0 0-2.9.5l-.4.2zm40.7-12.9v7.8a4.3 4.3 0 0 0 .2 1.2 1.2 1.2 0 0 0 .9.5v3.8a10.8 10.8 0 0 1-3.1-.2 6.5 6.5 0 0 1-2.2-1.1 11.7 11.7 0 0 1-5.5 1.3c-3.9 0-5.8-2-5.8-6.1 0-2 .5-3.4 1.6-4.2a7.9 7.9 0 0 1 4.9-1.5l4-.3v-1.2a2.1 2.1 0 0 0-.5-1.5 2.5 2.5 0 0 0-1.7-.4l-7 .2-.2-3.4a27.4 27.4 0 0 1 7.6-1.1c2.4 0 4.2.5 5.2 1.5s1.5 2.6 1.5 4.7zm-8.4 5c-1.4.2-2.1.9-2.1 2.2s.6 2.1 1.8 2.1a10.6 10.6 0 0 0 3.1-.5h.5v-4zm18.2 7.9h-5.1V49.3h5v1a9.7 9.7 0 0 1 4.7-1.5c2.5 0 4.2.7 5.1 2.2s1.5 3.7 1.5 6.7V68h-5V58a8.3 8.3 0 0 0-.5-3.5 2.3 2.3 0 0 0-2.3-1.1 5.8 5.8 0 0 0-2.9.5l-.4.2zm15.6-21v-5.2h5v5.1zm0 21V49.3h5V68zm24-12.9v7.8a2.4 2.4 0 0 0 .3 1.2 1.1 1.1 0 0 0 .9.5l-.2 3.8a10.1 10.1 0 0 1-3-.2 6.6 6.6 0 0 1-2.4-1.1 11.3 11.3 0 0 1-5.4 1.3c-3.9 0-5.8-2-5.8-6.1 0-2 .5-3.4 1.6-4.2a8.6 8.6 0 0 1 4.9-1.5l4-.3v-1.2a2.1 2.1 0 0 0-.5-1.5 2.5 2.5 0 0 0-1.7-.4l-7 .2-.2-3.4a27.9 27.9 0 0 1 7.6-1.1c2.5 0 4.2.5 5.2 1.5a6.3 6.3 0 0 1 1.6 4.7zm-8.4 5c-1.4.2-2.1.9-2.1 2.2s.6 2.1 1.8 2.1a11.2 11.2 0 0 0 3.1-.5h.6v-4z"/><path fill="#00f" d="M137.4 84.5h-3.1v-2h8.4v2h-3.1v9.2h-2.2zm13.3-2h2.8l3.5 11.2h-2.3l-.7-2.4h-3.8l-.7 2.4h-2.3zm2.7 6.8l-1.3-4.9-1.4 4.9zm11.2 4.4l-1.7-.3v-1.8l3.4.2a3.2 3.2 0 0 0 1.4-.3 1.1 1.1 0 0 0 .5-.9v-.4a1.1 1.1 0 0 0-.3-.8 1.1 1.1 0 0 0-.8-.2h-1a4.1 4.1 0 0 1-2.4-.8 3.4 3.4 0 0 1-.9-2.4v-.5c0-2.1 1.3-3.2 3.7-3.2l1.7.2 1.7.3v1.7h-3.2a3.1 3.1 0 0 0-1.3.3 1 1 0 0 0-.4.9v.3a.9.9 0 0 0 .4.8 1.6 1.6 0 0 0 .9.3h1.1a2.7 2.7 0 0 1 2.2.8 2.6 2.6 0 0 1 .7 2v.7a3.3 3.3 0 0 1-.4 1.9 2.6 2.6 0 0 1-1.3 1l-2.1.3zm12.2-11.2h2.2v4.6h1.5l2.3-4.6h2.4l-2.9 5.6 3 5.5H183l-2.4-4.5h-1.5v4.5h-2.3zM200 85a2.5 2.5 0 0 1 .7-2 3.2 3.2 0 0 1 1.8-.6l4.9.2v1.9h-4.3a.7.7 0 0 0-.6.3.9.9 0 0 0-.3.6v1.9l4.4.2v1.7l-4.4.2v4.3h-2.3zm15.3 8.3a2.9 2.9 0 0 1-1.5-1.6 14.2 14.2 0 0 1 0-7.1 3.1 3.1 0 0 1 1.5-1.7 8 8 0 0 1 5.3 0 3.1 3.1 0 0 1 1.5 1.7 14.2 14.2 0 0 1 0 7.1 2.9 2.9 0 0 1-1.5 1.6 8 8 0 0 1-5.3 0zm4.1-1.8a1.7 1.7 0 0 0 .7-1 9.7 9.7 0 0 0 .2-2.4 8.6 8.6 0 0 0-.2-2.3 1.6 1.6 0 0 0-.7-1.1 5 5 0 0 0-2.8 0 1.8 1.8 0 0 0-.8 1.1 8.6 8.6 0 0 0-.2 2.3 19.4 19.4 0 0 0 .2 2.4 1.7 1.7 0 0 0 .7 1 3.2 3.2 0 0 0 1.4.3 4 4 0 0 0 1.5-.3zm9.6-9h4.6a2.7 2.7 0 0 1 2.3.8 3.6 3.6 0 0 1 .8 2.8 3.8 3.8 0 0 1-.4 2.1 3.1 3.1 0 0 1-1.3 1l2.1 4.5h-2.3l-1.7-4.1h-1.9v4.1H229zm4.2 5.2a1.2 1.2 0 0 0 1-.3 2 2 0 0 0 .4-1.3 1.7 1.7 0 0 0-.4-1.2 1.3 1.3 0 0 0-1-.4h-2v3.2zm11.5 5.6a3.1 3.1 0 0 1-1.3-1.7 12.5 12.5 0 0 1 0-7 3.3 3.3 0 0 1 1.4-1.7 4.4 4.4 0 0 1 2.2-.5h1.9l1.6.4v1.7l-1.3-.2h-1.7a3.5 3.5 0 0 0-1.4.3 1.7 1.7 0 0 0-.6 1 5.8 5.8 0 0 0-.2 2.3 5.8 5.8 0 0 0 .2 2.3 1.4 1.4 0 0 0 .6 1.1l1.5.3 3-.2v1.8a14.7 14.7 0 0 1-3.6.4 6.2 6.2 0 0 1-2.3-.3zm12.9 0a2.3 2.3 0 0 1-.8-2v-6.2a2.4 2.4 0 0 1 .7-2 3 3 0 0 1 1.8-.6l4.8.2v1.8H260c-.6 0-1 .3-1 .9V87l4.5.2V89H259v1.6a.9.9 0 0 0 1 1h4.2v1.8a35.4 35.4 0 0 1-4.6.2 3.4 3.4 0 0 1-2-.3z"/></svg>