<svg xmlns="http://www.w3.org/2000/svg" viewBox="0 0 328.1 100"><path fill="#00f" d="M40 2.1L25.8 4.2 0 50l25.8 45.8L40 97.9 12.5 50zm36.3 0l14.2 2.1L116.3 50 90.5 95.8l-14.2 2.1L103.9 50z"/><path fill="#f2f2ff" d="M40 2.1L58.2 0v50H12.5z"/><path fill="#d9d9ff" d="M40 97.9l18.2 2.1V50H12.5z"/><path fill="#b3b3ff" d="M76.3 97.9L58.2 100V50h45.7z"/><path fill="#e6e6ff" d="M76.3 2.1L58.2 0v50h45.7z"/><path d="M164.2 41.9a43.4 43.4 0 0 1-9.5 1.2 19.7 19.7 0 0 1-6.8-1 8.4 8.4 0 0 1-4-3.4 16.9 16.9 0 0 1-2.1-5.4 68.1 68.1 0 0 1-.5-7.8c0-6.6.9-11.1 2.8-13.7s5.3-3.9 10.2-3.9a42.3 42.3 0 0 1 10 1.4l-.2 5.5a56.9 56.9 0 0 0-8.2-.8 10.2 10.2 0 0 0-4.7.9 5.4 5.4 0 0 0-2.1 3.3 38.7 38.7 0 0 0-.7 8.4c0 3.9.5 6.6 1.4 8.2s2.8 2.2 5.5 2.2a52.2 52.2 0 0 0 8.8-.7zm5.9-21.6c1.8-2.3 4.8-3.4 8.9-3.4s7.1 1.1 8.9 3.4 2.7 5.5 2.7 9.6c0 8.8-3.9 13.2-11.6 13.2s-11.5-4.4-11.5-13.2c0-4.1.9-7.3 2.6-9.6zm5.3 15.3a3.7 3.7 0 0 0 3.6 1.8 4 4 0 0 0 3.7-1.8 12.4 12.4 0 0 0 1.1-5.7 11.5 11.5 0 0 0-1.1-5.5 3.9 3.9 0 0 0-3.7-1.8 3.7 3.7 0 0 0-3.6 1.8 10.8 10.8 0 0 0-1.1 5.5 11.7 11.7 0 0 0 1.1 5.7zm41.3-28.1v35H210v-1.1a14.3 14.3 0 0 1-6.1 1.7c-3.6 0-6.1-1-7.5-3.1s-2.1-5.5-2.1-10.1.8-7.8 2.5-9.9 4.3-3.1 7.8-3.1a21.2 21.2 0 0 1 4.4.5l1 .2V7.5zm-7.4 29l.7-.2V23.2a27.2 27.2 0 0 0-4.9-.5c-2.7 0-4 2.4-4 7.2 0 2.6.2 4.5.9 5.5a2.8 2.8 0 0 0 2.9 1.7 16.1 16.1 0 0 0 4.4-.6zm20.3-.3a5.2 5.2 0 0 0 3.4 1c3.1 0 5.8-.1 8.3-.3h1.4v4.9a45.8 45.8 0 0 1-10.4 1.5c-3.8 0-6.5-1.1-8.2-3.1s-2.5-5.2-2.5-9.7c0-9 3.6-13.5 11-13.5s10.9 3.8 10.9 11.3L243 33h-14.6a4.1 4.1 0 0 0 1.2 3.2zm7.4-8.5a6.9 6.9 0 0 0-1-4.2 4.2 4.2 0 0 0-3.3-1.1 4 4 0 0 0-3.3 1.2c-.7.8-1 2.2-1.1 4.1zm30.3-4.5v19.3h-6.8V23.2h-2.6v-5.7h2.6v-1.1c0-3.6.6-6.1 1.7-7.5s2.9-2 5.7-2a23.1 23.1 0 0 1 4.6.5h1.1V13h-3.7a2.5 2.5 0 0 0-2.1.8 6.6 6.6 0 0 0-.4 2.8v1h6v5.7zm11.1-2.9c1.7-2.3 4.7-3.4 8.8-3.4s7.1 1.1 8.9 3.4a15.9 15.9 0 0 1 2.7 9.6c0 8.8-3.9 13.2-11.6 13.2s-11.5-4.4-11.5-13.2q0-6.1 2.7-9.6zm5.2 15.3a3.7 3.7 0 0 0 3.6 1.8 4 4 0 0 0 3.7-1.8 11.7 11.7 0 0 0 1.1-5.7 10.8 10.8 0 0 0-1.1-5.5 3.9 3.9 0 0 0-3.7-1.8q-2.7 0-3.6 1.8a10.8 10.8 0 0 0-1.1 5.5 11.7 11.7 0 0 0 1.1 5.7zm20 6.9v-25h6.7v2.7a22.6 22.6 0 0 1 8-3.3v6.7c-2.4.5-4.7 1.1-7 1.8l-1 .4v16.7zM149.5 81.1v11.4h-6.8v-34h13.2c8 0 11.9 3.8 11.9 11.2 0 4.5-1.6 7.7-5 9.8l4.9 13h-7.6l-3.9-11.4zm10.1-7.4a5.6 5.6 0 0 0 1.2-4 5.8 5.8 0 0 0-1.2-3.8 4.4 4.4 0 0 0-3.7-1.5h-6.4v10.8h6.4a4.3 4.3 0 0 0 3.7-1.5zm14.4-3.4c1.8-2.2 4.8-3.4 8.9-3.4s7.1 1.2 8.8 3.4 2.6 5.5 2.6 9.7c0 8.8-3.7 13.1-11.4 13.1s-11.5-4.3-11.5-13.1c0-4.2.9-7.4 2.6-9.7zm5.2 15.3a3.7 3.7 0 0 0 3.7 1.8q2.7 0 3.6-1.8a12 12 0 0 0 1.1-5.6 11.2 11.2 0 0 0-1.1-5.7c-.6-1.1-1.8-1.7-3.6-1.7a4 4 0 0 0-3.7 1.7 12.1 12.1 0 0 0-1 5.7c0 2.6.3 4.4 1 5.6zm26.8 6.9h-6.7v-25h6.6v1.4a13.8 13.8 0 0 1 5.9-2 8.1 8.1 0 0 1 6.2 2.3 19.3 19.3 0 0 1 8.5-2.3c3.3 0 5.6.9 6.9 2.9s1.9 4.9 1.9 9.2v13.5h-6.8V79.2a11 11 0 0 0-.6-4.8 2.9 2.9 0 0 0-2.8-1.5 16.8 16.8 0 0 0-3.9.7l-.8.2c.2 2.6.3 4.5.3 5.8v12.9h-6.8V79.7a15.7 15.7 0 0 0-.6-5.3c-.4-1-1.4-1.5-2.9-1.5a12.2 12.2 0 0 0-3.8.7l-.6.2zm54.4-17.2v10.4a3.3 3.3 0 0 0 .4 1.7 1.4 1.4 0 0 0 1.2.6v5.1a18.4 18.4 0 0 1-4.1-.3 10.9 10.9 0 0 1-3.1-1.4 17.1 17.1 0 0 1-7.4 1.7c-5.1 0-7.8-2.7-7.8-8.2 0-2.7.8-4.6 2.3-5.7a11.2 11.2 0 0 1 6.5-1.9l5.4-.4v-1.6a3.1 3.1 0 0 0-.7-2.1 3.2 3.2 0 0 0-2.3-.6l-9.4.4-.2-4.7a38.6 38.6 0 0 1 10.2-1.4c3.3 0 5.5.7 6.9 2s2.2 3.5 2.2 6.4zM249.1 82a2.7 2.7 0 0 0-2.8 2.9c0 1.8.9 2.8 2.5 2.8a14.1 14.1 0 0 0 4.1-.7h.8v-5.5zm24.4 10.5h-6.7v-25h6.6v1.4a12.7 12.7 0 0 1 6.3-2c3.3 0 5.6 1 6.8 3s2 5 2 9v13.6h-6.7V79.2a12.7 12.7 0 0 0-.7-4.8 3.2 3.2 0 0 0-3.1-1.5 10.4 10.4 0 0 0-3.9.7l-.6.2zm20.9-28.2v-6.8h6.7v6.8zm0 28.2v-25h6.7v25zm32.1-17.2v10.4a3.3 3.3 0 0 0 .4 1.7 1.4 1.4 0 0 0 1.2.6v5.1a18.4 18.4 0 0 1-4.1-.3 10.9 10.9 0 0 1-3.1-1.4 17 17 0 0 1-7.3 1.7c-5.2 0-7.8-2.7-7.8-8.2q0-4.1 2.1-5.7a12.3 12.3 0 0 1 6.6-1.9l5.4-.4v-1.6a3.1 3.1 0 0 0-.7-2.1 3.2 3.2 0 0 0-2.3-.6l-9.3.4-.3-4.7a38.6 38.6 0 0 1 10.2-1.4c3.3 0 5.6.7 7 2s2.1 3.5 2.1 6.4zM315.3 82a2.6 2.6 0 0 0-2.8 2.9c0 1.8.8 2.8 2.3 2.8a14.2 14.2 0 0 0 4.2-.7h.8v-5.5z"/></svg>